<svg xmlns="http://www.w3.org/2000/svg" viewBox="0 0 50 50"><title>1024 copy</title><path d="M35.91,16.74a4.56,4.56,0,0,0-2.65-2.65,7.75,7.75,0,0,0-2.6-.49c-1.48-.06-1.92-.08-5.66-.08s-4.18,0-5.66.08a7.75,7.75,0,0,0-2.6.49,4.56,4.56,0,0,0-2.65,2.65,7.75,7.75,0,0,0-.49,2.6c-.06,1.48-.08,1.92-.08,5.66s0,4.18.08,5.66a7.75,7.75,0,0,0,.49,2.6,4.56,4.56,0,0,0,2.65,2.65,7.75,7.75,0,0,0,2.6.49c1.48.06,1.92.08,5.66.08s4.18,0,5.66-.08a7.75,7.75,0,0,0,2.6-.49,4.56,4.56,0,0,0,2.65-2.65,7.75,7.75,0,0,0,.49-2.6c.06-1.48.08-1.92.08-5.66s0-4.18-.08-5.66A7.75,7.75,0,0,0,35.91,16.74ZM25,32.19A7.19,7.19,0,1,1,32.19,25,7.19,7.19,0,0,1,25,32.19Zm7.47-13a1.68,1.68,0,1,1,1.68-1.68A1.69,1.69,0,0,1,32.47,19.21Z"/><path d="M25,0A25,25,0,1,0,50,25,25,25,0,0,0,25,0ZM38.92,30.77a10.5,10.5,0,0,1-.65,3.4,7.21,7.21,0,0,1-4.1,4.1,10.5,10.5,0,0,1-3.4.65C29.28,39,28.8,39,25,39s-4.28,0-5.77-.08a10.5,10.5,0,0,1-3.4-.65,7.21,7.21,0,0,1-4.1-4.1,10.5,10.5,0,0,1-.65-3.4C11,29.28,11,28.8,11,25s0-4.28.08-5.77a10.5,10.5,0,0,1,.65-3.4,7.21,7.21,0,0,1,4.1-4.1,10.5,10.5,0,0,1,3.4-.65C20.72,11,21.2,11,25,11s4.28,0,5.77.08a10.5,10.5,0,0,1,3.4.65,7.21,7.21,0,0,1,4.1,4.1,10.5,10.5,0,0,1,.65,3.4C39,20.72,39,21.2,39,25S39,29.28,38.92,30.77Z"/><circle cx="25" cy="25" r="4.67"/></svg>