<?xml version="1.0" encoding="utf-8"?>


<svg version="1.1" id="svg-icon-logo-cb-large" xmlns="http://www.w3.org/2000/svg" xmlns:xlink="http://www.w3.org/1999/xlink"
	 x="0px" y="0px" viewBox="0 0 792.4 114.9" style="enable-background:new 0 0 792.4 114.9;" xml:space="preserve">
<style>
	.color {
	fill: #c7cfd1;
	}
</style>
<path class="color" d="M90.8,49.5c-1.7-10.7-13.3-28.9-35.3-28.9c-19.7,0.3-35.3,15.9-35.3,37.3C20.3,77.2,36.5,94,55.8,94
	C77.2,94,88.2,75.8,90,69.7h20.3c-3.5,18.5-22.3,44.8-54.1,44.8C24.6,114.6,0,88.5,0,57.3C0,26.3,24.6,0,55.5,0
	c30.4,0,52.7,24,55.5,49.5H90.8z M153.6,49.2c-10.7,0-19.7,8.1-19.7,19.7v43.4h-20.3v-79H133l0.9,8.1h0.3
	c6.1-7.2,12.4-10.1,18.5-10.1c2.3,0,4.3,0.3,4.9,0.9v17.1C156.2,49.5,155.7,49.2,153.6,49.2L153.6,49.2z M224.5,96.6V58.4
	c0-19.1-12.7-27.8-33.8-27.8c-9.3,0-16.2,2-21.7,5.8c-6.4,4.1-9.5,11-10.4,20.3h17.6c0.6-2.9,1.4-6.1,3.8-7.8
	c2.6-2,6.7-3.5,10.7-3.5c7.2,0,13.9,3.8,13.9,9.8c0,9-11,6.7-23.4,9.3c-13.3,2.3-27.8,9.5-27.8,25.5c0,15,14.5,24.6,28.6,24.6
	c9.3,0,15.9-2.3,24-9.3c0.3,2.6,0.6,4.3,1.2,6.9h20.3C224.8,107.6,224.5,102.1,224.5,96.6L224.5,96.6z M205.4,79
	c0,5.5-0.3,11.6-3.8,14.5c-3.5,3.2-8.1,5.2-14.8,5.2c-12.2,0-13.3-7.8-13.3-9.8c0-1.7,1.2-6.1,4.3-8.1c3.5-2.3,8.7-3.8,15.9-5.5
	c6.1-1.4,9.5-2.3,11.6-3.5L205.4,79L205.4,79z M255.2,112.5h-0.6c-15.9,0-19.4-9.8-19.4-19.1V47.2h-10.4V33.6h10.4V6.9h20v26.3h14.2
	v13.6h-14.2v39.6c0,7.2,2,10.1,9,10.1h6.1V112C258.9,112.5,255.2,112.5,255.2,112.5z M305.2,97.2c-9.8,0-18.5-7.8-18.5-17.9v-1.2
	h56.1c0-26.9-14.5-47.4-38.8-47.4s-38.5,20.8-38.5,41.1c0,21.4,14.2,42.8,40.5,42.8c27.5,0,35.9-23.4,35.9-26.9h-20.8
	C318.2,93.2,312.7,97.2,305.2,97.2L305.2,97.2z M303.8,47.2c9.5,0,16.8,6.7,16.8,16.5h-33.8C286.7,57,291.9,47.2,303.8,47.2z
	 M420.7,88.2c7.5-9.5,11-22.9,11.9-31.8h-17.4c0,1.2-5.8,17.1-5.8,17.1c-4.3-5.8-9-11.9-13.6-18.2c6.4-4.3,17.6-12.2,17.6-26.9
	c0-15.6-13-26-27.8-26c-16.8,0-26.6,13.3-26.6,24.3c0,12.7,10.1,22.9,11.3,24.6c-10.4,4.6-25.5,15-25.5,34.1
	c0,13,10.7,29.5,32.1,29.5c13.3,0,24.3-5.8,31.2-12.2c0,0,4.3,5.8,7.2,9.8h16.2c6.7,0,6.7,0,6.7,0C431.7,103,426.2,95.5,420.7,88.2
	L420.7,88.2z M386.2,18.5c4.6,0,9.8,3.8,9.8,9.5c0,5.5-5.5,10.4-10.4,14.5c-4.3-5.8-8.7-10.4-8.7-15.6
	C377,22.6,381.3,18.5,386.2,18.5z M377,97.2c-6.7,0-12.2-5.8-12.2-12.7c0-4.1,2-8.4,6.4-12.2c3.5-3.2,6.4-4.9,9.3-6.9
	c2.9,3.8,9.8,13.3,17.1,22.9C393.2,91.4,386.8,97.2,377,97.2z M504.3,54.7c1.2-0.9,16.5-5.2,16.5-22.9c0-11.3-5.5-27.2-36.7-27.2
	h-44v107.6h56.4c12.2,0,28.4-10.7,28.4-28.6C524.8,60.5,505.4,55.3,504.3,54.7z M460.3,21.4h23.4c12.2,0,16.8,6.4,16.8,13
	c0,10.4-9.5,13.6-16.8,13.6h-23.4V21.4L460.3,21.4z M483.7,95.5h-23.4V63.9H484c16.8,0,18.8,9.8,18.8,15.6
	C502.8,90.6,494.2,95.5,483.7,95.5z M597.7,96.6V58.4c0-19.1-12.7-27.8-33.8-27.8c-9.3,0-16.2,2-21.7,5.8c-6.4,4.1-9.5,11-10.4,20.3
	h17.6c0.6-2.9,1.4-6.1,3.8-7.8c2.6-2,6.7-3.5,10.7-3.5c7.2,0,13.9,3.8,13.9,9.8c0,9-11,6.7-23.4,9.3c-13.6,2.9-27.8,9.8-27.8,25.7
	c0,15,14.5,24.6,28.6,24.6c9.3,0,15.9-2.3,24-9.3c0.3,2.6,0.6,4.3,1.2,6.9h20.3C598,107.6,597.7,102.1,597.7,96.6L597.7,96.6z
	 M578.6,79c0,5.5-0.3,11.6-3.8,14.5c-3.5,3.2-8.1,5.2-14.8,5.2c-12.2,0-13.3-7.8-13.3-9.8c0-1.7,1.2-6.1,4.3-8.1
	c3.5-2.3,8.7-3.8,15.9-5.5c6.1-1.4,9.5-2.3,11.6-3.5C578.6,71.8,578.6,79,578.6,79z M643.4,49.2c-10.7,0-19.7,8.1-19.7,19.7v43.4
	h-20.3v-79h19.1l0.9,8.1h0.3c6.1-7.2,12.4-10.1,18.5-10.1c2.3,0,4.3,0.3,4.9,0.9v17.1C646,49.5,645.5,49.2,643.4,49.2z M691.2,49.2
	c-10.7,0-19.7,8.1-19.7,19.7v43.4h-20.3v-79h19.1l0.9,8.1h0.3c6.1-7.2,12.4-10.1,18.5-10.1c2.3,0,4.3,0.3,4.9,0.9v17.1
	C693.8,49.5,693.2,49.2,691.2,49.2z M731.4,97.2c-9.8,0-18.5-7.8-18.5-17.9v-1.2H769c0-26.9-14.5-47.4-38.8-47.4
	s-38.8,20.8-38.8,41.1c0,21.4,14.2,42.8,40.5,42.8c27.5,0,35.9-23.4,35.9-26.9H747C744.4,93.2,739.2,97.2,731.4,97.2z M729.9,47.2
	c9.5,0,16.8,6.7,16.8,16.5h-33.8C712.9,57,718.1,47.2,729.9,47.2z M772.2,4.6h20.3v107.6h-20.3C772.2,112.3,772.2,4.6,772.2,4.6z"/>
</svg>
