<svg id="Layer_1" data-name="Layer 1" xmlns="http://www.w3.org/2000/svg" viewBox="0 0 100 100"><title>plane copy</title><path d="M42.41,19.64a9,9,0,0,1,7.89,4.7A8.26,8.26,0,1,1,63.05,34.82H77.6a2.78,2.78,0,0,1,2.76,2.76v9.66A2.78,2.78,0,0,1,77.6,50H75.53V77.6a2.78,2.78,0,0,1-2.76,2.76H27.23a2.78,2.78,0,0,1-2.76-2.76V50H22.4a2.78,2.78,0,0,1-2.76-2.76V37.58a2.78,2.78,0,0,1,2.76-2.76H35.94a9,9,0,0,1,6.47-15.18Zm0,2.76a6.21,6.21,0,1,0,0,12.42h6.21V28.61A6.18,6.18,0,0,0,42.41,22.4ZM56.9,23.78a5.51,5.51,0,0,0-5.52,5.52v5.52H56.9a5.52,5.52,0,1,0,0-11Zm20.7,13.8H61v9.66H77.6Zm-19.32,0H41.72v9.66H58.28ZM39,37.58H22.4v9.66H39ZM72.77,50H56.9V77.6H72.77V50ZM54.14,50H45.86V77.6h8.28V50Zm-11,0H27.23V77.6H43.1V50Z"/></svg>