<?xml version="1.0" encoding="utf-8"?>
<!-- Generator: Adobe Illustrator 23.0.3, SVG Export Plug-In . SVG Version: 6.00 Build 0)  -->
<svg version="1.1" id="Layer_1" xmlns="http://www.w3.org/2000/svg" xmlns:xlink="http://www.w3.org/1999/xlink" x="0px" y="0px"
	 viewBox="0 0 27.3 24.9" style="enable-background:new 0 0 27.3 24.9;" xml:space="preserve">
<style type="text/css">
	.st0{fill-rule:evenodd;clip-rule:evenodd;fill:#F2AB99;}
	.st1{fill:#F4DB8D;}
</style>
<g>
	<g>
		<g transform="translate(50 50) scale(0.69 0.69) rotate(0) translate(-50 -50)">
			<g>
				<path class="st0" d="M-2.5,13.6L-18.9-2.6c-10.8-10.8,5.6-27.1,16.3-16.3c10.7-10.8,27,5.6,16.2,16.3L-2.5,13.6z"/>
			</g>
		</g>
	</g>
	<path class="st1" d="M7.8,14.1c-0.2,0-0.5-0.1-0.6-0.2c-3.9-3.3-3.3-7.8-3.2-8C4,5.3,4.5,4.9,5.1,5C5.6,5.1,6,5.6,5.9,6.2l0,0
		c0,0.1-0.5,3.6,2.5,6.2c0.4,0.4,0.5,1,0.1,1.4C8.4,14,8.1,14.1,7.8,14.1z"/>
</g>
</svg>
