<?xml version="1.0" encoding="UTF-8"?>
<svg width="85px" height="31px" viewBox="0 0 85 31" version="1.1" xmlns="http://www.w3.org/2000/svg" xmlns:xlink="http://www.w3.org/1999/xlink">
    <!-- Generator: Sketch 52.6 (67491) - http://www.bohemiancoding.com/sketch -->
    <title>Group 9</title>
    <desc>Created with Sketch.</desc>
    <defs>
        <polygon id="path-1" points="0 0.547561224 20.5571541 0.547561224 20.5571541 21.5813776 0 21.5813776"></polygon>
        <polygon id="path-3" points="0.587011278 0.234081633 30.0890414 0.234081633 30.0890414 30.3670939 0.587011278 30.3670939"></polygon>
    </defs>
    <g id="Page-1" stroke="none" stroke-width="1" fill="none" fill-rule="evenodd">
        <g id="home-desktop" transform="translate(-470.000000, -16.000000)">
            <g id="Group-9" transform="translate(470.000000, 16.000000)">
                <g id="Group-3" transform="translate(0.000000, 4.827333)">
                    <mask id="mask-2" fill="white">
                        <use xlink:href="#path-1"></use>
                    </mask>
                    <g id="Clip-2"></g>
                    <path d="M-6.39097744e-05,11.2824184 C-6.39097744e-05,8.35766327 1.00587594,5.83780612 3.01775564,3.72158163 C5.02963534,1.60535714 7.47034962,0.547561224 10.3411767,0.547561224 C12.6246729,0.547561224 15.024485,0.848704082 17.5393346,1.44972449 C17.6435075,1.47060204 17.7911391,2.25382653 17.9790338,3.79939796 C18.1682068,5.34433673 18.2627932,6.26231633 18.2627932,6.55270408 C18.2627932,6.71909184 18.0736203,6.80196939 17.6965526,6.80196939 C17.2568534,6.80196939 16.9315526,6.75009184 16.7225677,6.64633673 C16.6171165,6.25282653 16.4496729,5.84792857 16.2195977,5.43290816 C15.9888835,5.01788776 15.6424925,4.5509898 15.181703,4.03221429 C14.7209135,3.51470408 14.0818158,3.09462245 13.2644098,2.77260204 C12.4476429,2.45058163 11.5254248,2.28988776 10.4983947,2.28988776 C6.72643985,2.28988776 4.8411015,5.04888776 4.8411015,10.5668878 C4.8411015,12.1225816 5.04561278,13.5694592 5.45399624,14.9068878 C5.8623797,16.2455816 6.58519925,17.4020714 7.62245489,18.3769898 C8.65971053,19.3519082 9.95324436,19.839051 11.5043346,19.839051 C12.4259135,19.839051 13.0969662,19.6732959 13.5162143,19.3411531 C13.7462895,19.1545204 13.8619662,18.8432551 13.8619662,18.4079898 L13.8619662,16.447398 L13.8619662,16.2291327 C13.8619662,15.1713367 13.7884699,14.3735612 13.6414774,13.8339082 C13.4740338,13.2733776 12.7825301,12.9937449 11.5676053,12.9937449 C11.4832444,12.9937449 11.4365902,12.8229286 11.4257256,12.4806633 C11.4148609,12.138398 11.4512895,11.9258265 11.5356504,11.8423163 C11.912718,11.8631939 12.4105752,11.8891327 13.0292218,11.9207653 C13.6465902,11.9517653 14.2121917,11.9777041 14.7260263,11.9985816 C15.2392218,12.0188265 15.7370789,12.0295816 16.2195977,12.0295816 C16.5333947,12.0295816 17.947718,11.966949 20.4625677,11.8423163 C20.5258383,12.0295816 20.5571541,12.2370918 20.5571541,12.4648469 C20.5571541,12.8381122 20.5149737,13.0253776 20.4312519,13.0253776 C19.9487331,13.0253776 19.3939962,13.1803776 18.7651241,13.4916429 C18.4302368,13.6580306 18.2627932,14.4773163 18.2627932,15.9495 L18.2627932,17.7544592 C18.2627932,18.1277245 18.294109,18.4079898 18.3567406,18.5946224 C18.4193722,18.7818878 18.450688,18.8951327 18.450688,18.9368878 C18.450688,19.2899082 18.2308383,19.5802959 17.7911391,19.8086837 C17.0152744,20.2028265 16.4132444,20.4881531 15.9837707,20.663398 C15.5536579,20.8399082 14.789297,21.0372959 13.6887707,21.2549286 C12.5888835,21.4725612 11.3573421,21.5813776 9.99542481,21.5813776 C7.22940977,21.5813776 4.87241729,20.5602755 2.92316917,18.5168061 C0.97456015,16.4739694 -6.39097744e-05,14.0629286 -6.39097744e-05,11.2824184" id="Fill-1" fill="#FEFEFE" mask="url(#mask-2)"></path>
                </g>
                <path d="M77.7301992,21.8351347 L77.7301992,16.6385224 L77.6669286,16.5145224 C75.6972293,16.4727673 74.4708008,16.4518898 73.9895602,16.4518898 C71.3909887,16.4727673 70.0923421,16.5037673 70.0923421,16.5455224 L70.1543346,16.6075224 L70.1543346,21.7111347 C70.1543346,22.8100531 70.2380564,23.6812163 70.4061391,24.3246245 C70.4476805,24.469502 70.7365526,24.6358898 71.2708383,24.8225224 C71.8051241,25.0091551 72.1662143,25.1021551 72.3553872,25.1021551 C72.439109,25.1021551 72.4857632,25.2577878 72.4966278,25.5690531 C72.5068534,25.8803184 72.4806504,26.1087061 72.4173797,26.252951 C72.3125677,26.252951 71.6689962,26.2118286 70.4847481,26.128951 C69.3011391,26.0460735 68.4364398,26.004951 67.8912895,26.004951 C67.3461391,26.004951 66.5555752,26.0403796 65.5189586,26.1137673 C64.481703,26.1858898 63.8055376,26.2320735 63.4911015,26.252951 C63.4067406,26.1707061 63.3651992,25.9941959 63.3651992,25.7240531 C63.3651992,25.3096653 63.3862895,25.1021551 63.4284699,25.1021551 C63.6796353,25.1021551 64.0771541,25.0192776 64.6223045,24.8535224 C65.1674549,24.6877673 65.4710263,24.5220122 65.534297,24.3549918 C65.6806504,23.7950939 65.7541466,22.9555633 65.7541466,21.8351347 L65.7541466,9.94884898 C65.7541466,8.68417551 65.6806504,7.87501224 65.534297,7.52199184 C65.4288459,7.29423673 65.1361391,7.09684898 64.6542594,6.93046122 C64.1717406,6.76533878 63.8055376,6.68182857 63.5537331,6.68182857 C63.4700113,6.68182857 63.4284699,6.47495102 63.4284699,6.05929796 C63.4284699,5.74803265 63.448282,5.5721551 63.4911015,5.53103265 C66.3823797,5.65503265 67.8382444,5.71703265 67.8606128,5.71703265 C68.404485,5.71703265 69.934485,5.65503265 72.4486955,5.53103265 C72.5126053,5.63478776 72.5439211,5.85178776 72.5439211,6.18393061 C72.5439211,6.51607347 72.5011015,6.68182857 72.4173797,6.68182857 C72.229485,6.68182857 71.8620038,6.7704 71.3174925,6.94627755 C70.7723421,7.12278776 70.4694098,7.28348163 70.4061391,7.42899184 C70.2380564,7.86425714 70.1543346,8.74617551 70.1543346,10.072849 L70.1543346,14.4919306 L70.2176053,14.5849306 C72.2710263,14.6266857 73.5287707,14.6475633 73.9895602,14.6475633 C74.5551617,14.6475633 75.7809511,14.6266857 77.6669286,14.5849306 C77.709109,14.5444408 77.7301992,14.5026857 77.7301992,14.4609306 L77.7301992,9.94884898 C77.7301992,8.87080816 77.656703,8.0508898 77.5097105,7.49035918 C77.447718,7.32460408 77.1588459,7.14872653 76.6456504,6.96146122 C76.1318158,6.77482857 75.7598609,6.68182857 75.5297857,6.68182857 C75.4460639,6.68182857 75.3987707,6.51037959 75.3885451,6.16811429 C75.3770414,5.82584898 75.414109,5.61327755 75.4984699,5.53103265 C78.3897481,5.65503265 79.9510639,5.71703265 80.1817782,5.71703265 C80.4962143,5.71703265 81.9105376,5.65503265 84.4253872,5.53103265 C84.4880188,5.71703265 84.5193346,5.90366531 84.5193346,6.09029796 C84.5193346,6.48444082 84.4669286,6.68182857 84.3627556,6.68182857 C84.1735827,6.68182857 83.8067406,6.7704 83.2622293,6.94627755 C82.7170789,7.12278776 82.4237331,7.28348163 82.3815526,7.42899184 C82.214109,8.0508898 82.1310263,8.93280816 82.1310263,10.072849 L82.1310263,21.7111347 C82.1310263,22.8309306 82.214109,23.712849 82.3815526,24.3549918 C82.4237331,24.500502 82.7119662,24.6567673 83.2462519,24.8225224 C83.7805376,24.9882776 84.1422669,25.0711551 84.3308008,25.0711551 C84.4145226,25.0711551 84.4560639,25.2887878 84.4560639,25.7240531 C84.4560639,25.8910735 84.4253872,26.066951 84.3627556,26.252951 C84.1735827,26.252951 83.5549361,26.2118286 82.508094,26.128951 C81.4599737,26.0460735 80.6636579,26.004951 80.1185075,26.004951 C79.5535451,26.004951 78.6990714,26.0403796 77.5570038,26.1137673 C76.414297,26.1858898 75.7074549,26.2320735 75.4351992,26.252951 C75.3514774,26.1707061 75.3150489,25.9581347 75.3252744,25.6158694 C75.3355,25.2736041 75.3827932,25.1021551 75.466515,25.1021551 C75.6972293,25.1021551 76.0845226,25.0091551 76.6296729,24.8225224 C77.1741842,24.6358898 77.4783947,24.4587469 77.5416654,24.2929918 C77.6669286,23.8166041 77.7301992,22.9973184 77.7301992,21.8351347" id="Fill-4" fill="#FEFEFE"></path>
                <g id="Group-8" transform="translate(26.842105, 0.398761)">
                    <mask id="mask-4" fill="white">
                        <use xlink:href="#path-3"></use>
                    </mask>
                    <g id="Clip-7"></g>
                    <path d="M13.5792293,0.233828571 C15.0171992,0.233828571 16.2762218,0.621012245 17.3550188,1.39474694 C18.4338158,2.16911429 18.9732143,3.2054 18.9732143,4.50550204 C18.9732143,5.40386939 18.6370489,6.26997143 17.964718,7.10507347 C17.2917481,7.94144082 16.6903571,8.35899184 16.1592669,8.35899184 C15.7208459,8.35899184 15.5022744,8.21980816 15.5022744,7.94144082 C15.5022744,7.91107347 15.564906,7.68584898 15.6901692,7.26829796 C15.8147932,6.85011429 15.8774248,6.37878776 15.8774248,5.85178776 C15.8774248,4.89268571 15.5565977,4.11072653 14.9162218,3.50717551 C14.2745677,2.90362449 13.485282,2.60184898 12.5470865,2.60184898 C11.171109,2.60184898 10.0296805,3.15162449 9.12343985,4.2499102 C8.21592105,5.34882857 7.76343985,6.6261551 7.76343985,8.07999184 C7.76343985,9.34972653 8.21592105,10.3714612 9.12343985,11.1451959 C9.90441729,10.9288286 10.530094,10.8193796 10.9991917,10.8193796 C11.8434398,10.8193796 12.6014098,11.0218286 13.2743797,11.4235633 C13.9467105,11.8259306 14.2828759,12.352298 14.2828759,13.0020327 C14.2828759,13.5904 13.969718,14.0465429 13.3446805,14.3723592 C12.7190038,14.6969102 12.0153571,14.859502 11.2343797,14.859502 C10.0450188,14.859502 9.07678571,14.5343184 8.32648496,13.8845837 C6.91919173,15.0613184 6.21554511,17.1807061 6.21554511,20.2452776 C6.21554511,22.3811143 6.80862782,24.1841755 7.99798872,25.6544612 C9.18543233,27.1247469 10.889906,27.8598898 13.1101316,27.8598898 C15.5802444,27.8598898 17.6362218,26.9545633 19.2780639,25.1439102 C20.9192669,23.3332571 21.7405075,21.1898286 21.7405075,18.7129918 C21.7405075,17.5678898 21.521297,16.5701959 21.0841541,15.7186449 C20.6457331,14.8670939 19.9734023,14.441951 19.0671617,14.441951 C18.284906,14.441951 17.604906,14.6507265 17.0271617,15.0682776 C16.4475,15.4858286 16.1592669,16.0362367 16.1592669,16.7169714 C16.1592669,17.2123388 16.5964098,17.5678898 17.4719737,17.7848898 C17.9417105,17.9082571 18.4018609,18.1410735 18.8562594,18.4814408 C19.3087406,18.8218082 19.5362594,19.2083592 19.5362594,19.6417265 C19.5362594,21.1588286 18.8632895,22.0875633 17.5192669,22.427298 C16.7996429,22.427298 16.002688,21.9559714 15.1271241,21.0114204 C14.2509211,20.0681347 13.8137782,19.0078082 13.8137782,17.8304408 C13.8137782,16.1286041 14.5014474,14.6969102 15.8774248,13.5359918 C17.2534023,12.3750735 18.8479511,11.7949306 20.6617105,11.7949306 C21.1301692,11.7949306 21.7245301,11.8107469 22.4441541,11.8417469 C23.1625,11.8721143 23.7575,11.8879306 24.2265977,11.8879306 C25.2581015,11.8879306 26.1566729,11.6405633 26.9235902,11.1451959 C27.6892293,10.6504612 28.0720489,9.96909388 28.0720489,9.10235918 C28.0720489,8.69999184 27.9237782,8.36658367 27.6265977,8.1034 C27.3294173,7.84084898 26.9619361,7.70862449 26.5241541,7.70862449 C26.2116353,7.70862449 25.836485,7.87944082 25.3993421,8.21980816 C24.9609211,8.56080816 24.5697932,8.73035918 24.2265977,8.73035918 C23.6635526,8.73035918 23.1944549,8.51462449 22.8193045,8.07999184 C22.4441541,7.64725714 22.2562594,7.13670612 22.2562594,6.54770612 C22.2562594,5.58923673 22.600094,4.86105306 23.2884023,4.36568571 C27.8215226,4.36568571 30.0890414,5.94478776 30.0890414,9.10235918 C30.0890414,10.4954612 29.6435902,11.6329714 28.752688,12.5142571 C27.8611466,13.3974408 26.6334398,13.8377673 25.0702068,13.8377673 C24.8829511,13.8377673 24.476485,13.8074 23.8514474,13.7447673 C25.6332519,15.3238694 26.5241541,17.1807061 26.5241541,19.3171755 C26.5241541,22.3811143 25.0944925,24.9895429 22.2332519,27.1399306 C19.3713722,29.2922163 16.1426504,30.3670939 12.5470865,30.3670939 C9.35798872,30.3670939 6.56704887,29.4617673 4.17554511,27.6511143 C1.78276316,25.8404612 0.587011278,23.4952163 0.587011278,20.6172776 C0.587011278,18.6978082 1.24336466,16.9333388 2.55671053,15.3238694 C3.87005639,13.7150327 5.29268797,12.6154816 6.82524436,12.0271143 C6.76197368,11.9657469 6.59069549,11.7879714 6.30949248,11.4931551 C6.02765038,11.1996041 5.80843985,10.9591959 5.6531391,10.7731959 C5.49592105,10.5878286 5.30802632,10.3170531 5.09009398,9.96086939 C4.87088346,9.60531837 4.71430451,9.22635918 4.62035714,8.82335918 C4.52704887,8.42099184 4.47975564,7.97244082 4.47975564,7.47707347 C4.47975564,5.18623673 5.44159774,3.40721633 7.36464286,2.13748163 C9.28768797,0.868379592 11.3590038,0.233828571 13.5792293,0.233828571" id="Fill-6" fill="#F2AB99" mask="url(#mask-4)"></path>
                </g>
            </g>
        </g>
    </g>
</svg>
