<?xml version="1.0" encoding="utf-8"?>
<!-- Generator: Adobe Illustrator 23.0.3, SVG Export Plug-In . SVG Version: 6.00 Build 0)  -->
<svg version="1.1" id="Layer_1" xmlns="http://www.w3.org/2000/svg" xmlns:xlink="http://www.w3.org/1999/xlink" x="0px" y="0px"
	 viewBox="0 0 85 31" style="enable-background:new 0 0 85 31;" xml:space="preserve">
<style type="text/css">
	.st0{filter:url(#Adobe_OpacityMaskFilter);}
	.st1{fill-rule:evenodd;clip-rule:evenodd;fill:#FFFFFF;}
	.st2{mask:url(#mask-2_1_);fill-rule:evenodd;clip-rule:evenodd;fill:#1A383D;}
	.st3{fill-rule:evenodd;clip-rule:evenodd;fill:#1A383D;}
	.st4{filter:url(#Adobe_OpacityMaskFilter_1_);}
	.st5{mask:url(#mask-4_1_);fill-rule:evenodd;clip-rule:evenodd;fill:#F2AB99;}
</style>
<defs>
	<filter id="Adobe_OpacityMaskFilter" filterUnits="userSpaceOnUse" x="0" y="5.4" width="20.6" height="21">
		<feColorMatrix  type="matrix" values="1 0 0 0 0  0 1 0 0 0  0 0 1 0 0  0 0 0 1 0"/>
	</filter>
</defs>
<mask maskUnits="userSpaceOnUse" x="0" y="5.4" width="20.6" height="21" id="mask-2_1_">
	<g class="st0">
		<polygon id="path-1_1_" class="st1" points="0,5.4 20.6,5.4 20.6,26.4 0,26.4 		"/>
	</g>
</mask>
<path id="Fill-1" class="st2" d="M0,16.1c0-2.9,1-5.4,3-7.6s4.5-3.2,7.3-3.2c2.3,0,4.7,0.3,7.2,0.9c0.1,0,0.3,0.8,0.4,2.3
	c0.2,1.5,0.3,2.5,0.3,2.8c0,0.2-0.2,0.2-0.6,0.2c-0.4,0-0.8-0.1-1-0.2c-0.1-0.4-0.3-0.8-0.5-1.2c-0.2-0.4-0.6-0.9-1-1.4
	c-0.5-0.5-1.1-0.9-1.9-1.3c-0.8-0.3-1.7-0.5-2.8-0.5c-3.8,0-5.7,2.8-5.7,8.3c0,1.6,0.2,3,0.6,4.3c0.4,1.3,1.1,2.5,2.2,3.5
	s2.3,1.5,3.9,1.5c0.9,0,1.6-0.2,2-0.5c0.2-0.2,0.3-0.5,0.3-0.9v-2v-0.2c0-1.1-0.1-1.9-0.2-2.4c-0.2-0.6-0.9-0.8-2.1-0.8
	c-0.1,0-0.1-0.2-0.1-0.5c0-0.3,0-0.6,0.1-0.6c0.4,0,0.9,0,1.5,0.1c0.6,0,1.2,0.1,1.7,0.1c0.5,0,1,0,1.5,0c0.3,0,1.7-0.1,4.2-0.2
	c0.1,0.2,0.1,0.4,0.1,0.6c0,0.4,0,0.6-0.1,0.6c-0.5,0-1,0.2-1.7,0.5c-0.3,0.2-0.5,1-0.5,2.5v1.8c0,0.4,0,0.7,0.1,0.8
	c0.1,0.2,0.1,0.3,0.1,0.3c0,0.4-0.2,0.6-0.7,0.9C17,25,16.4,25.3,16,25.5c-0.4,0.2-1.2,0.4-2.3,0.6c-1.1,0.2-2.3,0.3-3.7,0.3
	c-2.8,0-5.1-1-7.1-3.1C1,21.3,0,18.9,0,16.1"/>
<path id="Fill-4" class="st3" d="M77.7,21.8v-5.2l-0.1-0.1c-2,0-3.2-0.1-3.7-0.1c-2.6,0-3.9,0.1-3.9,0.1l0.1,0.1v5.1
	c0,1.1,0.1,2,0.3,2.6c0,0.1,0.3,0.3,0.9,0.5c0.5,0.2,0.9,0.3,1.1,0.3c0.1,0,0.1,0.2,0.1,0.5c0,0.3,0,0.5-0.1,0.7
	c-0.1,0-0.7,0-1.9-0.1c-1.2-0.1-2-0.1-2.6-0.1s-1.3,0-2.4,0.1c-1,0.1-1.7,0.1-2,0.1c-0.1-0.1-0.1-0.3-0.1-0.5c0-0.4,0-0.6,0.1-0.6
	c0.3,0,0.6-0.1,1.2-0.2c0.5-0.2,0.8-0.3,0.9-0.5c0.1-0.6,0.2-1.4,0.2-2.5V9.9c0-1.3-0.1-2.1-0.2-2.4c-0.1-0.2-0.4-0.4-0.9-0.6
	c-0.5-0.2-0.8-0.2-1.1-0.2c-0.1,0-0.1-0.2-0.1-0.6c0-0.3,0-0.5,0.1-0.5c2.9,0.1,4.3,0.2,4.4,0.2c0.5,0,2.1-0.1,4.6-0.2
	c0.1,0.1,0.1,0.3,0.1,0.7c0,0.3,0,0.5-0.1,0.5c-0.2,0-0.6,0.1-1.1,0.3c-0.5,0.2-0.8,0.3-0.9,0.5c-0.2,0.4-0.3,1.3-0.3,2.6v4.4
	l0.1,0.1c2.1,0,3.3,0.1,3.8,0.1c0.6,0,1.8,0,3.7-0.1c0,0,0.1-0.1,0.1-0.1V9.9c0-1.1-0.1-1.9-0.2-2.5c-0.1-0.2-0.4-0.3-0.9-0.5
	c-0.5-0.2-0.9-0.3-1.1-0.3c-0.1,0-0.1-0.2-0.1-0.5c0-0.3,0-0.6,0.1-0.6c2.9,0.1,4.5,0.2,4.7,0.2c0.3,0,1.7-0.1,4.2-0.2
	c0.1,0.2,0.1,0.4,0.1,0.6c0,0.4-0.1,0.6-0.2,0.6c-0.2,0-0.6,0.1-1.1,0.3c-0.5,0.2-0.8,0.3-0.9,0.5c-0.2,0.6-0.3,1.5-0.3,2.6v11.6
	c0,1.1,0.1,2,0.3,2.6c0,0.1,0.3,0.3,0.9,0.5c0.5,0.2,0.9,0.2,1.1,0.2c0.1,0,0.1,0.2,0.1,0.7c0,0.2,0,0.3-0.1,0.5
	c-0.2,0-0.8,0-1.9-0.1c-1-0.1-1.8-0.1-2.4-0.1c-0.6,0-1.4,0-2.6,0.1c-1.1,0.1-1.8,0.1-2.1,0.1c-0.1-0.1-0.1-0.3-0.1-0.6
	c0-0.3,0.1-0.5,0.1-0.5c0.2,0,0.6-0.1,1.2-0.3c0.5-0.2,0.8-0.4,0.9-0.5C77.7,23.8,77.7,23,77.7,21.8"/>
<defs>
	<filter id="Adobe_OpacityMaskFilter_1_" filterUnits="userSpaceOnUse" x="27.4" y="0.6" width="29.5" height="30.1">
		<feColorMatrix  type="matrix" values="1 0 0 0 0  0 1 0 0 0  0 0 1 0 0  0 0 0 1 0"/>
	</filter>
</defs>
<mask maskUnits="userSpaceOnUse" x="27.4" y="0.6" width="29.5" height="30.1" id="mask-4_1_">
	<g class="st4">
		<polygon id="path-3_1_" class="st1" points="27.4,0.6 56.9,0.6 56.9,30.8 27.4,30.8 		"/>
	</g>
</mask>
<path id="Fill-6" class="st5" d="M40.4,0.6c1.4,0,2.7,0.4,3.8,1.2c1.1,0.8,1.6,1.8,1.6,3.1c0,0.9-0.3,1.8-1,2.6
	c-0.7,0.8-1.3,1.3-1.8,1.3c-0.4,0-0.7-0.1-0.7-0.4c0,0,0.1-0.3,0.2-0.7c0.1-0.4,0.2-0.9,0.2-1.4c0-1-0.3-1.7-1-2.3
	C41.1,3.3,40.3,3,39.4,3C38,3,36.9,3.6,36,4.6c-0.9,1.1-1.4,2.4-1.4,3.8c0,1.3,0.5,2.3,1.4,3.1c0.8-0.2,1.4-0.3,1.9-0.3
	c0.8,0,1.6,0.2,2.3,0.6c0.7,0.4,1,0.9,1,1.6c0,0.6-0.3,1-0.9,1.4c-0.6,0.3-1.3,0.5-2.1,0.5c-1.2,0-2.2-0.3-2.9-1
	c-1.4,1.2-2.1,3.3-2.1,6.4c0,2.1,0.6,3.9,1.8,5.4c1.2,1.5,2.9,2.2,5.1,2.2c2.5,0,4.5-0.9,6.2-2.7c1.6-1.8,2.5-4,2.5-6.4
	c0-1.1-0.2-2.1-0.7-3c-0.4-0.9-1.1-1.3-2-1.3c-0.8,0-1.5,0.2-2,0.6c-0.6,0.4-0.9,1-0.9,1.6c0,0.5,0.4,0.9,1.3,1.1
	c0.5,0.1,0.9,0.4,1.4,0.7c0.5,0.3,0.7,0.7,0.7,1.2c0,1.5-0.7,2.4-2,2.8c-0.7,0-1.5-0.5-2.4-1.4c-0.9-0.9-1.3-2-1.3-3.2
	c0-1.7,0.7-3.1,2.1-4.3c1.4-1.2,3-1.7,4.8-1.7c0.5,0,1.1,0,1.8,0c0.7,0,1.3,0,1.8,0c1,0,1.9-0.2,2.7-0.7c0.8-0.5,1.1-1.2,1.1-2
	c0-0.4-0.1-0.7-0.4-1c-0.3-0.3-0.7-0.4-1.1-0.4c-0.3,0-0.7,0.2-1.1,0.5c-0.4,0.3-0.8,0.5-1.2,0.5c-0.6,0-1-0.2-1.4-0.7
	c-0.4-0.4-0.6-0.9-0.6-1.5c0-1,0.3-1.7,1-2.2c4.5,0,6.8,1.6,6.8,4.7c0,1.4-0.4,2.5-1.3,3.4c-0.9,0.9-2.1,1.3-3.7,1.3
	c-0.2,0-0.6,0-1.2-0.1c1.8,1.6,2.7,3.4,2.7,5.6c0,3.1-1.4,5.7-4.3,7.8c-2.9,2.2-6.1,3.2-9.7,3.2c-3.2,0-6-0.9-8.4-2.7
	c-2.4-1.8-3.6-4.2-3.6-7c0-1.9,0.7-3.7,2-5.3c1.3-1.6,2.7-2.7,4.3-3.3c-0.1-0.1-0.2-0.2-0.5-0.5c-0.3-0.3-0.5-0.5-0.7-0.7
	c-0.2-0.2-0.3-0.5-0.6-0.8c-0.2-0.4-0.4-0.7-0.5-1.1c-0.1-0.4-0.1-0.9-0.1-1.3c0-2.3,1-4.1,2.9-5.3C36.1,1.3,38.2,0.6,40.4,0.6"/>
</svg>
