<svg xmlns="http://www.w3.org/2000/svg" xmlns:xlink="http://www.w3.org/1999/xlink" viewBox="0 0 85 31"><defs><style>.a{fill:#fff;}.a,.c,.e{fill-rule:evenodd;}.b{mask:url(#a);}.c{fill:#fefefe;}.d{mask:url(#b);}.e{fill:#f2ab99;}</style><mask id="a" x="0" y="5.37" width="20.56" height="21.03" maskUnits="userSpaceOnUse"><polygon class="a" points="0 5.38 20.56 5.38 20.56 26.41 0 26.41 0 5.38"/></mask><mask id="b" x="27.43" y="0.63" width="29.5" height="30.13" maskUnits="userSpaceOnUse"><polygon class="a" points="27.43 0.63 56.93 0.63 56.93 30.77 27.43 30.77 27.43 0.63"/></mask></defs><title>logo</title><g class="b"><path class="c" d="M0,16.11A10.6,10.6,0,0,1,3,8.55a9.71,9.71,0,0,1,7.32-3.18,31.14,31.14,0,0,1,7.2.91A7.68,7.68,0,0,1,18,8.63c.19,1.54.28,2.46.28,2.75s-.19.25-.56.25a2.23,2.23,0,0,1-1-.16,5.27,5.27,0,0,0-.5-1.21,8.46,8.46,0,0,0-1-1.4A4.87,4.87,0,0,0,13.26,7.6a7.46,7.46,0,0,0-2.76-.48q-5.65,0-5.66,8.27a15,15,0,0,0,.61,4.34A7.87,7.87,0,0,0,7.62,23.2a5.43,5.43,0,0,0,3.88,1.47,3.27,3.27,0,0,0,2-.5,1.14,1.14,0,0,0,.34-.93V21.06a9.63,9.63,0,0,0-.22-2.4q-.25-.84-2.07-.84c-.09,0-.13-.17-.14-.51s0-.56.11-.64l1.49.08,1.7.08,1.49,0c.31,0,1.73-.07,4.24-.19a1.75,1.75,0,0,1,.1.62c0,.38,0,.56-.13.56a3.83,3.83,0,0,0-1.66.47c-.34.17-.51,1-.51,2.46v1.8a2.51,2.51,0,0,0,.1.84,1.86,1.86,0,0,1,.09.34,1,1,0,0,1-.66.88c-.77.39-1.38.68-1.81.85a13.91,13.91,0,0,1-2.29.59,18.88,18.88,0,0,1-3.69.33,9.41,9.41,0,0,1-7.08-3.07A10.11,10.11,0,0,1,0,16.11"/></g><path class="c" d="M77.73,21.84v-5.2l-.06-.13L74,16.45c-2.6,0-3.9.05-3.9.1l.06.06v5.1a10.55,10.55,0,0,0,.26,2.61c0,.15.33.32.86.5a4.09,4.09,0,0,0,1.09.28c.08,0,.13.16.14.47a1.71,1.71,0,0,1-.08.68l-1.94-.12c-1.18-.08-2-.13-2.59-.13s-1.33,0-2.37.11l-2,.14a.8.8,0,0,1-.12-.53c0-.41,0-.62.06-.62a4.46,4.46,0,0,0,1.19-.25c.55-.16.85-.33.91-.5a10.37,10.37,0,0,0,.22-2.51V10a8,8,0,0,0-.22-2.43c-.1-.23-.39-.42-.88-.59a3.87,3.87,0,0,0-1.1-.25c-.08,0-.12-.21-.12-.62a1.18,1.18,0,0,1,.06-.53l4.37.19c.54,0,2.07-.06,4.59-.19a1.5,1.5,0,0,1,.09.65c0,.34,0,.5-.12.5a4.4,4.4,0,0,0-1.1.27c-.55.17-.85.33-.91.48a8.65,8.65,0,0,0-.26,2.64v4.42l.07.09c2,.05,3.31.07,3.77.07s1.79,0,3.68-.07a.17.17,0,0,0,.06-.12V10a10.18,10.18,0,0,0-.22-2.46c-.06-.17-.35-.34-.86-.53a3.74,3.74,0,0,0-1.12-.28c-.08,0-.13-.17-.14-.51s0-.56.11-.64c2.89.13,4.45.19,4.68.19s1.73-.06,4.25-.19a1.82,1.82,0,0,1,.09.56c0,.39,0,.59-.16.59a4.5,4.5,0,0,0-1.1.27c-.54.17-.84.33-.88.48a10.57,10.57,0,0,0-.25,2.64V21.71a10.78,10.78,0,0,0,.25,2.64c0,.15.33.31.87.47a4.34,4.34,0,0,0,1.08.25c.08,0,.13.22.13.65a1.46,1.46,0,0,1-.1.53c-.19,0-.81,0-1.85-.12S80.66,26,80.12,26s-1.42,0-2.56.11l-2.12.14c-.09-.08-.12-.29-.11-.63s0-.52.14-.52a4.14,4.14,0,0,0,1.16-.28c.54-.18.85-.36.91-.53a10.57,10.57,0,0,0,.19-2.45"/><g class="d"><path class="e" d="M40.42.63A6.35,6.35,0,0,1,44.2,1.79,3.65,3.65,0,0,1,45.82,4.9a4.1,4.1,0,0,1-1,2.6c-.68.84-1.28,1.26-1.81,1.26s-.66-.14-.66-.42c0,0,.07-.26.19-.67a4.79,4.79,0,0,0,.19-1.42,3.06,3.06,0,0,0-1-2.34A3.3,3.3,0,0,0,39.39,3,4.23,4.23,0,0,0,36,4.65a5.81,5.81,0,0,0-1.36,3.83A3.81,3.81,0,0,0,36,11.54a7.64,7.64,0,0,1,1.87-.32,4.39,4.39,0,0,1,2.28.6,1.79,1.79,0,0,1,1,1.58,1.5,1.5,0,0,1-.93,1.37,4.47,4.47,0,0,1-2.11.49,4.29,4.29,0,0,1-2.91-1q-2.12,1.77-2.11,6.36a8.31,8.31,0,0,0,1.78,5.41A6.19,6.19,0,0,0,40,28.26a8,8,0,0,0,6.17-2.72,9.25,9.25,0,0,0,2.46-6.43,6.55,6.55,0,0,0-.65-3,2.15,2.15,0,0,0-2-1.28,3.39,3.39,0,0,0-2,.63A1.92,1.92,0,0,0,43,17.12c0,.49.44.85,1.31,1.06a4.23,4.23,0,0,1,1.39.7A1.46,1.46,0,0,1,46.38,20a2.55,2.55,0,0,1-2,2.79A3.57,3.57,0,0,1,42,21.41a4.52,4.52,0,0,1-1.31-3.18,5.42,5.42,0,0,1,2.06-4.3,7.2,7.2,0,0,1,4.78-1.74c.47,0,1.07,0,1.79.05s1.31,0,1.78,0a4.85,4.85,0,0,0,2.7-.75,2.3,2.3,0,0,0,1.14-2,1.28,1.28,0,0,0-.44-1,1.63,1.63,0,0,0-1.1-.39,2,2,0,0,0-1.13.51,2,2,0,0,1-1.17.51,1.81,1.81,0,0,1-1.41-.65A2.27,2.27,0,0,1,49.1,7a2.53,2.53,0,0,1,1-2.19q6.79,0,6.8,4.74a4.56,4.56,0,0,1-1.34,3.41,5,5,0,0,1-3.68,1.33c-.18,0-.59,0-1.22-.1a7.22,7.22,0,0,1,2.68,5.58q0,4.59-4.29,7.82a15.76,15.76,0,0,1-9.69,3.23A13.48,13.48,0,0,1,31,28.05a8.42,8.42,0,0,1-3.59-7,8.22,8.22,0,0,1,2-5.3,10.27,10.27,0,0,1,4.27-3.29l-.52-.54c-.28-.29-.5-.53-.65-.72a5.89,5.89,0,0,1-.57-.81,3.92,3.92,0,0,1-.47-1.14,6.13,6.13,0,0,1-.14-1.34,6,6,0,0,1,2.89-5.34A11,11,0,0,1,40.42.63"/></g></svg>