<svg id="Layer_1" data-name="Layer 1" xmlns="http://www.w3.org/2000/svg" viewBox="0 0 100 100"><title>plane</title><path d="M38.15,61.85a1.58,1.58,0,0,0-2.21,0l-5.51,5.51a1.56,1.56,0,1,0,2.21,2.21l5.51-5.51A1.58,1.58,0,0,0,38.15,61.85Z"/><path d="M70.12,29.88A5.05,5.05,0,0,0,64.5,29a1.55,1.55,0,0,0-.77,2.09,1.58,1.58,0,0,0,2,.83,2,2,0,0,1,2.09.22c.77.77.22,2.09.22,2.09A1.62,1.62,0,0,0,68.41,36a1.45,1.45,0,0,0,.44.33,1.6,1.6,0,0,0,2.1-.77A5,5,0,0,0,70.12,29.88Z"/><path d="M71.39,83.74l3.31-4.41a1.34,1.34,0,0,0,.16-1.49l-5.12-13.4,4.79-4.79a1.56,1.56,0,0,0,0-2.21l-5-5a1.56,1.56,0,0,0-2.21,0L65.82,54l-2.15-5.56L74.81,37.32a8.2,8.2,0,0,0,0-11.58l-.55-.55a8.2,8.2,0,0,0-11.58,0L51.54,36.33,46,34.18l1.54-1.54a1.56,1.56,0,0,0,0-2.21l-5-5a1.56,1.56,0,0,0-2.21,0l-4.79,4.79-13.4-5.12a1.58,1.58,0,0,0-1.49.16l-4.41,3.31a1.46,1.46,0,0,0-.6,1.16A1.65,1.65,0,0,0,16.1,31l20.39,20.4-7.55,7.55L17.42,54.58a1.75,1.75,0,0,0-1.49.16l-1.87,1.43a1.44,1.44,0,0,0-.61,1.16,1.65,1.65,0,0,0,.44,1.21l8.82,8.82.11.12a8.29,8.29,0,0,0,2.37,6.78l.55.55a8.39,8.39,0,0,0,6.78,2.37l.12.11,8.82,8.82a1.65,1.65,0,0,0,1.21.44,1.44,1.44,0,0,0,1.16-.61l1.37-1.82a1.34,1.34,0,0,0,.17-1.49l-4.3-11.57,7.55-7.55L69,83.9a1.65,1.65,0,0,0,1.21.44A1.46,1.46,0,0,0,71.39,83.74ZM25.19,62.68l-1.37,1.38-6-6,8.66,3.26Zm16.27-33.9,2.75,2.75L42.78,33l-4-1.55ZM38.7,49.17,19.57,30l2.26-1.7L49.12,38.75ZM71.77,35.94l-.27.28L67,40.74,62.4,45.31,38.15,69.57l-2.76,2.76A5.4,5.4,0,0,1,28,72.6l-.55-.55a5.4,5.4,0,0,1,.27-7.44l2.76-2.76L54.69,37.6,59.26,33l4.52-4.52.28-.27.82-.83a5.05,5.05,0,0,1,7.17,0l.55.55a5.05,5.05,0,0,1,0,7.17ZM41.9,82.14l-6-6,1.38-1.37,1.32-1.33ZM68.47,55.79l2.75,2.75-2.7,2.71-1.54-4ZM50.83,61.3,61.25,50.88,71.66,78.17,70,80.43Z"/></svg>