<?xml version="1.0" encoding="utf-8"?>
<!-- Generator: Adobe Illustrator 23.0.3, SVG Export Plug-In . SVG Version: 6.00 Build 0)  -->
<svg version="1.1" id="Layer_1" xmlns="http://www.w3.org/2000/svg" xmlns:xlink="http://www.w3.org/1999/xlink" x="0px" y="0px"
	 viewBox="0 0 100 100" style="enable-background:new 0 0 100 100;" xml:space="preserve">
<style type="text/css">
	.st0{fill:#1A383D;}
</style>
<title>shoe</title>
<path class="st0" d="M84.2,65.1H43.7c-0.8,0-1.6-0.2-2.4-0.5l-5.9-2.5c-0.4-0.2-0.8-0.2-1.2-0.2H15.7c-0.8,0-1.5-0.7-1.5-1.5
	c0-0.1,0-0.1,0-0.2L16,47.9c0.5-3,3.1-5.3,6.1-5.3h0.2c2.2,0,4.2,1.1,5.3,3c0.6,1.1,1.8,1.8,3.1,1.7c3.1,0.1,6.1-1.5,7.7-4.2
	c-3.2-6.1,0.7-11.9,3.4-14.2c0.6-0.4,1.4-0.4,1.9,0l24.5,18.8c0.9,0.7,2,1.3,3.1,1.6l8.4,2.6c2.4,0.8,4.5,2.5,5.6,4.8
	c1.1,2.3,1.2,5,0.3,7.3C85.4,64.8,84.8,65.1,84.2,65.1z M17.4,58.9h16.8c0.8,0,1.6,0.2,2.4,0.5l0,0l5.9,2.5c0.4,0.2,0.8,0.2,1.2,0.2
	h39.4c0.6-3.1-1.2-6.3-4.2-7.2l-8.4-2.7c-1.4-0.5-2.8-1.2-4-2.1L43,32.2c-1.5,1.7-4.3,5.8-1.5,10.3c0.3,0.5,0.3,1.1,0,1.5
	c-2.1,4.1-6.4,6.6-11,6.5c-2.3,0-4.3-1.2-5.5-3.2c-0.6-1-1.6-1.6-2.8-1.6H22c-1.5,0.1-2.8,1.2-3,2.7L17.4,58.9z"/>
<path class="st0" d="M53.3,48.3c-0.4,0-0.9-0.2-1.2-0.5c-1.3-1.5-5.4-5.5-8.4-5.3c-1,0.1-1.9,0.7-2.3,1.6c-0.5,0.6-1.5,0.7-2.1,0.2
	c-0.5-0.4-0.7-1.2-0.4-1.8c0.9-1.7,2.7-2.8,4.6-3c5-0.4,10.3,5.6,10.9,6.3c0.5,0.6,0.5,1.6-0.1,2.1c0,0,0,0,0,0
	C54.1,48.1,53.7,48.3,53.3,48.3z"/>
<path class="st0" d="M62.9,56.2c-0.2,0-0.4,0-0.6-0.1c-0.7-0.4-1.1-1.2-0.7-2l3.2-6.7c0.4-0.8,1.3-1.1,2-0.7c0.8,0.4,1.1,1.3,0.7,2
	l0,0l-3.2,6.7C64.1,55.8,63.5,56.2,62.9,56.2z"/>
<path class="st0" d="M57.2,54.5c-0.2,0-0.4-0.1-0.6-0.1c-0.8-0.4-1.1-1.2-0.7-2l4-8.7c0.3-0.8,1.2-1.2,2-0.8s1.2,1.2,0.8,2
	c0,0,0,0.1-0.1,0.1l-4,8.7C58.4,54.1,57.8,54.5,57.2,54.5z"/>
<path class="st0" d="M51.5,52.3c-0.2,0-0.4,0-0.6-0.1c-0.8-0.3-1.1-1.2-0.7-2l4.7-10.1c0.3-0.8,1.2-1.2,2-0.8s1.2,1.2,0.8,2
	c0,0,0,0.1-0.1,0.1l-4.7,10.1C52.6,52,52.1,52.3,51.5,52.3z"/>
<path class="st0" d="M76.4,71.4H21.5c-4.3,0-7.7-3.5-7.7-7.7c0-0.4,0-0.8,0.1-1.1l0.3-2.3c0.1-0.7,0.7-1.3,1.5-1.3h18.6
	c0.8,0,1.6,0.2,2.4,0.5l5.9,2.5c0.4,0.2,0.8,0.2,1.2,0.2h40.5c0.5,0,1,0.2,1.2,0.7c0.3,0.4,0.3,0.9,0.2,1.4l-0.2,0.4L85,65.8
	C83.5,69.2,80.1,71.4,76.4,71.4z M17,61.9l-0.1,1c-0.4,2.6,1.4,5,4,5.4c0.2,0,0.5,0.1,0.7,0.1h54.9c2.3,0,4.4-1.2,5.5-3.2H43.7
	c-0.8,0-1.6-0.2-2.4-0.5l-5.9-2.5c-0.4-0.2-0.8-0.2-1.2-0.2L17,61.9z"/>
</svg>
