<?xml version="1.0" encoding="utf-8"?>
<!-- Generator: Adobe Illustrator 23.0.3, SVG Export Plug-In . SVG Version: 6.00 Build 0)  -->
<svg version="1.1" id="Layer_1" xmlns="http://www.w3.org/2000/svg" xmlns:xlink="http://www.w3.org/1999/xlink" x="0px" y="0px"
	 viewBox="0 0 163.2 34.2" style="enable-background:new 0 0 163.2 34.2;" xml:space="preserve">
<style type="text/css">
	.st0{fill:#C7CFD1;}
</style>
<title>target-logo</title>
<path class="st0" d="M17.1,5.7c-6.3,0-11.4,5.1-11.4,11.4s5.1,11.4,11.4,11.4s11.4-5.1,11.4-11.4C28.5,10.8,23.4,5.7,17.1,5.7
	C17.1,5.7,17.1,5.7,17.1,5.7 M34.2,17.1c0,9.4-7.7,17.1-17.1,17.1S0,26.5,0,17.1C0,7.7,7.7,0,17.1,0c0,0,0,0,0,0
	C26.5,0,34.2,7.7,34.2,17.1"/>
<path class="st0" d="M17.1,11.2c-3.2,0-5.8,2.7-5.8,5.9c0,3.2,2.7,5.8,5.9,5.8c3.2,0,5.8-2.6,5.8-5.9C23,13.9,20.4,11.2,17.1,11.2"
	/>
<polygon class="st0" points="45.3,9.9 38.5,9.9 38.5,5.7 57.1,5.7 57.1,9.9 50.3,9.9 50.3,28.5 45.3,28.5 "/>
<path class="st0" d="M54.9,28.5H60l1.8-5.1h8.5l1.7,5.1h5.2L68.7,5.7h-5.1L54.9,28.5z M66,11.3L66,11.3l3,8.3h-5.9L66,11.3z"/>
<path class="st0" d="M79.1,28.5h5v-8.9h5c2.5,0,3.4,1,3.8,3.4c0.2,1.8,0.2,4,0.8,5.5h5c-0.9-1.3-0.9-4-1-5.4
	c-0.2-2.3-0.9-4.7-3.3-5.3v-0.1c2.3-0.9,3.8-3.2,3.6-5.7c0-3.4-2.6-6.3-6.7-6.3H79.1V28.5 M84.1,9.6h5.5c2.2,0,3.4,1,3.4,3.1
	S91.8,16,89.6,16h-5.5V9.6z"/>
<path class="st0" d="M117.9,25.9c-1.5,2-3.8,3.2-6.2,3.1c-7,0-11.2-5.2-11.2-11.8c0-6.8,4.1-12,11.2-12c4.7,0,9,2.9,9.6,8h-4.8
	c-0.4-2.3-2.5-3.9-4.8-3.8c-4.5,0-6.2,3.8-6.2,7.8c0,3.8,1.7,7.6,6.2,7.6c3.2,0,5.1-1.8,5.4-4.9h-5v-3.7h9.6v12.3h-3.2L117.9,25.9"
	/>
<polygon class="st0" points="125,5.7 142,5.7 142,9.9 130,9.9 130,14.8 141,14.8 141,18.7 130,18.7 130,24.2 142.2,24.2 142.2,28.5 
	125,28.5 "/>
<polygon class="st0" points="151.3,9.9 144.5,9.9 144.5,5.7 163.1,5.7 163.1,9.9 156.3,9.9 156.3,28.5 151.3,28.5 "/>
<path class="st0" d="M161.3,26.4c0.3,0,0.6,0,0.6-0.4s-0.2-0.3-0.5-0.3h-0.5v0.7H161.3 M160.9,27.6h-0.3v-2.2h0.9
	c0.5,0,0.8,0.2,0.8,0.6c0,0.3-0.2,0.6-0.6,0.6c0,0,0,0,0,0l0.6,1h-0.4l-0.6-1h-0.4V27.6z M161.3,28.1c0.9,0,1.6-0.7,1.6-1.6
	c0-0.9-0.7-1.6-1.6-1.6c-0.9,0-1.6,0.7-1.6,1.6c0,0,0,0,0,0C159.7,27.4,160.3,28.1,161.3,28.1C161.2,28.1,161.2,28.1,161.3,28.1
	 M159.3,26.5c0-1.1,0.8-2,1.9-2.1c1.1,0,2,0.8,2.1,1.9c0,1.1-0.8,2-1.9,2.1c0,0,0,0-0.1,0C160.2,28.5,159.3,27.7,159.3,26.5
	C159.3,26.6,159.3,26.6,159.3,26.5"/>
</svg>
