<?xml version="1.0" encoding="utf-8"?>
<!-- Generator: Adobe Illustrator 23.0.3, SVG Export Plug-In . SVG Version: 6.00 Build 0)  -->
<svg version="1.1" id="Layer_1" xmlns="http://www.w3.org/2000/svg" xmlns:xlink="http://www.w3.org/1999/xlink" x="0px" y="0px"
	 viewBox="0 0 100 100" style="enable-background:new 0 0 100 100;" xml:space="preserve">
<style type="text/css">
	.st0{fill:#1A383D;}
</style>
<title>tie</title>
<path class="st0" d="M47.5,34.3c-0.8,0-1.4,0.6-1.5,1.4l-4.2,43.7c0,0.5,0.2,1,0.5,1.3l6.7,5.9c0.6,0.5,1.4,0.5,2,0l6.8-5.9
	c0.4-0.3,0.6-0.8,0.5-1.3L54,35.7c-0.1-0.8-0.8-1.5-1.7-1.4S50.9,35.2,51,36l0,0l0,0l4.2,43L50,83.5L44.9,79L49,36
	c0.1-0.8-0.5-1.6-1.3-1.7c0,0,0,0,0,0L47.5,34.3z"/>
<path class="st0" d="M53.2,26.4h-6.3c-0.3,0-0.6,0.1-0.8,0.2l-4,2.6c-0.7,0.5-0.9,1.4-0.5,2.1c0,0,0,0,0,0c0.1,0.1,0.1,0.2,0.2,0.2
	l6.2,6.2c0.3,0.3,0.7,0.5,1.1,0.5H51c0.4,0,0.8-0.2,1.1-0.4l6.2-6.2c0.6-0.6,0.6-1.6,0-2.1c0,0,0,0,0,0c-0.1-0.1-0.2-0.1-0.2-0.2
	l-4-2.6C53.8,26.5,53.5,26.4,53.2,26.4L53.2,26.4z M52.8,29.5l2.1,1.3l-4.5,4.4h-0.7l-4.5-4.4l2.1-1.3L52.8,29.5z"/>
<path class="st0" d="M73,13c-0.5,0-1,0.2-1.3,0.6l-9.3,12.5l-11.5-7.8c-0.5-0.4-1.2-0.4-1.7,0l-11.5,7.8l-9.3-12.5
	c-0.5-0.7-1.4-0.8-2.1-0.4c-0.7,0.5-0.8,1.4-0.4,2.1l0,0l10.2,13.7c0.5,0.6,1.4,0.8,2.1,0.4l11.9-8l11.9,8c0.7,0.5,1.6,0.3,2.1-0.4
	l10.1-13.7c0.5-0.7,0.4-1.6-0.3-2.1C73.6,13.1,73.3,13,73,13z"/>
</svg>
