<?xml version="1.0" encoding="utf-8"?>
<!-- Generator: Adobe Illustrator 23.0.3, SVG Export Plug-In . SVG Version: 6.00 Build 0)  -->
<svg version="1.1" id="Layer_1" xmlns="http://www.w3.org/2000/svg" xmlns:xlink="http://www.w3.org/1999/xlink" x="0px" y="0px"
	 viewBox="0 0 100 16.2" style="enable-background:new 0 0 100 16.2;" xml:space="preserve">
<style type="text/css">
	.st0{fill:#C7CFD1;}
</style>
<title>west-elm-logo</title>
<path class="st0" d="M45.9,0c0.2-0.1,0.4-0.1,0.5,0.1c0.1,0.3,0.2,0.7,0.1,1c0,0.7,0,1.4,0,2.2c0,0.3,0.2,0.6,0.5,0.6l0,0
	c1,0,2,0,3,0c0.4,0,0.5,0.5,0.5,0.8s-0.1,0.7-0.4,0.7c-1,0-2,0-2.9,0c-0.3,0-0.5,0.2-0.6,0.4c0,0.3,0,0.5,0,0.8c0,1.8,0,3.5,0,5.3
	c-0.1,0.8,0.1,1.5,0.6,2.1c0.5,0.4,1.2,0.6,1.8,0.4c0.4,0,0.7-0.2,1.1-0.3s0.4,0.2,0.4,0.4c0,0.4,0.1,0.9-0.3,1.1
	c-1.1,0.6-2.4,0.6-3.6,0.2c-0.7-0.3-1.2-0.9-1.4-1.6c-0.3-0.9-0.4-1.9-0.4-2.9c0-1.7,0-3.5,0-5.2c0-0.2-0.1-0.5-0.3-0.6
	c-0.5-0.3-1,0.1-1.4-0.2c-0.3-0.4-0.3-0.9,0-1.3c0.4-0.3,1,0,1.4-0.2c0.2-0.1,0.3-0.3,0.3-0.5c0-0.8,0-1.6,0-2.3
	C44.8,0.5,45.4,0.3,45.9,0L45.9,0z"/>
<path class="st0" d="M76.4,0.4c0.5,0,1,0,1.4,0c0.3,0,0.7,0,1,0.1c0.2,0.1,0.3,0.4,0.3,0.6v14c0,0.2,0,0.5-0.2,0.6
	c-0.4,0.1-0.8,0.1-1.1,0c-0.2-0.1-0.3-0.4-0.3-0.6V2.5c0-0.3-0.1-0.6-0.3-0.7c-0.3-0.1-0.7,0-1-0.2S75.8,0.5,76.4,0.4z"/>
<path class="st0" d="M34.6,3.8c1.2-0.2,2.4,0,3.5,0.5c0.3,0.1,0.5,0.5,0.3,0.8c-0.1,0.3-0.3,0.8-0.7,0.7s-1-0.3-1.5-0.4
	c-0.8-0.3-1.7-0.1-2.4,0.5c-0.6,0.8-0.4,1.8,0.3,2.4c1.2,1,2.9,1.2,4,2.3c1,1.1,1.1,2.8,0.3,4c-0.6,0.9-1.6,1.4-2.7,1.5
	c-1.2,0.1-2.5-0.1-3.6-0.6c-0.3-0.1-0.6-0.3-0.7-0.6c0-0.4,0.1-0.7,0.4-1c0.2-0.2,0.5-0.2,0.7,0c0.9,0.5,2,0.7,3,0.6
	c0.8-0.1,1.5-0.8,1.6-1.6c0-0.5-0.2-1.1-0.7-1.4c-1-0.6-2-1.2-3-1.6c-0.8-0.4-1.4-1.1-1.7-2c-0.3-1.3,0.1-2.7,1.2-3.5
	C33.5,4.1,34,3.9,34.6,3.8L34.6,3.8z"/>
<path class="st0" d="M26.2,13.5c-0.5,0.2-0.8,0.5-1.3,0.6c-1,0.5-2.2,0.5-3.3,0.2c-0.8-0.3-1.4-1-1.7-1.8c-0.3-0.7-0.4-1.5-0.4-2.3
	c0.1-0.3,0.4-0.5,0.7-0.4c1.8,0,3.5,0,5.3,0c0.3,0,0.7-0.2,0.8-0.5c0.5-1.1,0.6-2.4,0.1-3.6c-0.3-0.7-0.9-1.3-1.6-1.6
	c-1-0.4-2.2-0.5-3.2-0.3C20.7,4,20,4.4,19.4,5c-0.4,0.4-0.8,0.8-1,1.3c-0.6,1.5-0.9,3.2-0.6,4.9c0.1,1.3,0.6,2.5,1.4,3.5
	c0.7,0.8,1.7,1.3,2.8,1.4c1.3,0.1,2.7-0.1,3.9-0.7c0.3-0.1,0.5-0.3,0.7-0.5c0.1-0.4,0.1-0.8,0.1-1.1C26.6,13.6,26.4,13.4,26.2,13.5z
	 M20.4,6.5c0.4-0.5,1-0.9,1.7-1c0.8-0.2,1.7,0,2.3,0.5c0.5,0.4,0.7,1.2,0.5,1.8c-0.1,0.3-0.3,0.4-0.6,0.4c-1.3,0-2.6,0-3.9,0
	c-0.2,0-0.6-0.1-0.6-0.3C19.9,7.3,20.1,6.8,20.4,6.5L20.4,6.5z"/>
<path class="st0" d="M70.9,13.5c-0.3,0.1-0.6,0.2-0.9,0.4c-1,0.6-2.1,0.8-3.2,0.6c-0.7-0.1-1.3-0.5-1.8-1c-0.6-0.8-0.9-1.8-0.9-2.8
	c-0.1-0.3,0-0.6,0.1-0.8c0.2-0.1,0.5-0.2,0.7-0.1h5c0.3,0,0.7-0.1,0.9-0.4c0.6-1.1,0.6-2.5,0.1-3.7c-0.3-0.8-1-1.4-1.8-1.6
	c-1-0.3-2.1-0.4-3.1-0.2c-0.9,0.2-1.7,0.7-2.3,1.3c-0.9,1.1-1.4,2.3-1.4,3.7c-0.2,1.8,0.1,3.7,1,5.3c0.5,0.9,1.4,1.6,2.4,1.8
	c1.7,0.4,3.5,0.1,5-0.8c0.4-0.2,0.4-0.7,0.4-1.2C71.2,13.8,71.2,13.5,70.9,13.5z M64.8,6.7c0.4-0.7,1.1-1.1,1.8-1.3
	c0.8-0.2,1.7,0,2.3,0.5c0.5,0.4,0.7,1.1,0.5,1.8c-0.1,0.3-0.3,0.4-0.6,0.5h-3.9c-0.2,0-0.6-0.1-0.6-0.3C64.4,7.4,64.6,7,64.8,6.7z"
	/>
<path class="st0" d="M0.2,4.2C0.5,4,1,3.9,1.4,3.9c0.3,0,0.4,0.4,0.4,0.7c0.5,2.3,1,4.7,1.5,7c0,0.3,0.1,0.6,0.3,0.9
	C3.8,12.6,3.9,12.2,4,12c0.7-2.4,1.4-4.9,2.1-7.3c0-0.3,0.2-0.5,0.5-0.6s0.7-0.1,1,0S8,4.5,8,4.8C8.6,7,9.1,9.3,9.7,11.5
	c0,0.3,0.2,0.7,0.4,0.9c0.2-0.1,0.3-0.3,0.4-0.6C11,9.5,11.6,7,12.2,4.6c0.1-0.3,0.2-0.6,0.6-0.7c0.4,0,0.7,0.1,1,0.3
	C14,4.4,13.9,4.8,13.9,5c-1,3.5-2,7-3,10.4C10.6,16,10,16.2,9.5,16c-0.1,0-0.1-0.1-0.2-0.1c-0.2-0.2-0.3-0.5-0.4-0.8
	c-0.6-2.3-1.2-4.5-1.8-6.8c0-0.2-0.2-0.5-0.4-0.6c0,0.3-0.2,0.6-0.3,1c-0.7,2.2-1.3,4.4-2,6.6C4.3,15.5,4.3,15.9,4,16
	s-0.6,0.1-0.9,0s-0.3-0.4-0.4-0.6L0.1,5C0.1,4.7-0.1,4.4,0.2,4.2L0.2,4.2z"/>
<path class="st0" d="M89.9,4c1-0.2,2,0.1,2.7,0.8c0.3,0.3,0.5,0.7,0.7,1.1C93.4,6,93.5,6,93.6,6c0.2-0.2,0.4-0.4,0.5-0.6
	c0.7-0.9,1.7-1.5,2.9-1.5c0.8,0,1.6,0.3,2.1,0.9c0.6,0.8,0.9,1.7,0.9,2.6V15c0,0.3,0,0.7-0.3,0.8s-0.7,0.1-1-0.1
	c-0.2-0.2-0.3-0.4-0.3-0.7V8.9c0.1-0.8,0-1.6-0.2-2.3c-0.1-0.5-0.5-0.9-1-1.1c-0.8-0.2-1.6,0-2.2,0.6c-0.7,0.7-1.1,1.7-1.3,2.6
	c-0.2,1.1-0.2,2.2-0.2,3.3s0,2.1,0,3.2c0,0.2-0.1,0.5-0.3,0.6c-0.3,0.1-0.6,0.1-0.9,0C92,15.7,92,15.3,92,15.1V8
	c0-0.7-0.2-1.4-0.6-2c-0.4-0.5-1.1-0.7-1.8-0.5c-0.8,0.2-1.4,0.8-1.8,1.5C87.3,8.1,87,9.3,87,10.5c0,1.5,0,3.1,0,4.6
	c0,0.2,0,0.6-0.2,0.7c-0.3,0.1-0.7,0.1-1,0c-0.2-0.1-0.3-0.4-0.3-0.6c0-3.4,0-6.8,0-10.2c0-0.3,0.1-0.6,0.3-0.7
	c0.3-0.1,0.7-0.1,1,0.1c0.3,0.4,0,0.9,0.2,1.3c0.3,0.1,0.4-0.2,0.6-0.3C88.2,4.6,89,4.1,89.9,4z"/>
</svg>
