<?xml version="1.0" encoding="UTF-8"?>
<svg width="212px" height="27px" viewBox="0 0 212 27" version="1.1" xmlns="http://www.w3.org/2000/svg" xmlns:xlink="http://www.w3.org/1999/xlink">
    <!-- Generator: Sketch 52.6 (67491) - http://www.bohemiancoding.com/sketch -->
    <title>Group 29</title>
    <desc>Created with Sketch.</desc>
    <defs>
        <polygon id="path-1" points="0 0.18276 17.8418175 0.18276 17.8418175 17.45916 0 17.45916"></polygon>
        <polygon id="path-3" points="0.285719637 0.43044 15.688 0.43044 15.688 11.93064 0.285719637 11.93064"></polygon>
    </defs>
    <g id="Page-1" stroke="none" stroke-width="1" fill="none" fill-rule="evenodd">
        <g id="home-desktop" transform="translate(-763.000000, -3194.000000)">
            <g id="Group-12" transform="translate(762.000000, 3194.000000)">
                <g id="Group-29" transform="translate(1.000000, 0.000000)">
                    <g id="Group-3" transform="translate(0.000000, 3.712080)">
                        <mask id="mask-2" fill="white">
                            <use xlink:href="#path-1"></use>
                        </mask>
                        <g id="Clip-2"></g>
                        <path d="M-0.000128096677,8.99976 C-0.000128096677,6.59736 0.872850755,4.52676 2.61944894,2.78916 C4.36476616,1.05156 6.48412568,0.18276 8.97560604,0.18276 C10.9572616,0.18276 13.0407541,0.42996 15.222881,0.92376 C15.3131891,0.94056 15.4412858,1.58496 15.6046091,2.85336 C15.7685728,4.12236 15.8505547,4.87716 15.8505547,5.11476 C15.8505547,5.25216 15.6865909,5.31936 15.3586634,5.31936 C14.9782163,5.31936 14.6951227,5.27736 14.5132254,5.19156 C14.4229172,4.86756 14.2775275,4.53636 14.0770562,4.19496 C13.8772254,3.85476 13.5768387,3.47136 13.1765366,3.04536 C12.7768749,2.61876 12.2215758,2.27376 11.5132012,2.01036 C10.8035456,1.74576 10.0029414,1.61376 9.11266949,1.61376 C5.83787795,1.61376 4.20208338,3.87996 4.20208338,8.41176 C4.20208338,9.68976 4.3788568,10.87836 4.73368459,11.97696 C5.0878719,13.07616 5.71554562,14.02536 6.61542477,14.82696 C7.51658489,15.62736 8.63871178,16.02756 9.98500785,16.02756 C10.7856121,16.02756 11.3665305,15.89136 11.7303251,15.61896 C11.9314369,15.46476 12.0307118,15.21036 12.0307118,14.85216 L12.0307118,13.24176 L12.0307118,13.06296 C12.0307118,12.19356 11.9673039,11.53836 11.8404882,11.09556 C11.694458,10.63536 11.0943251,10.40556 10.0400894,10.40556 C9.96707432,10.40556 9.92608338,10.26456 9.91711662,9.98436 C9.90814985,9.70296 9.94017402,9.52776 10.0125486,9.45996 C10.3404761,9.47676 10.7715215,9.49776 11.307606,9.52356 C11.8449716,9.54876 12.3355819,9.57036 12.7813583,9.58716 C13.2264943,9.60456 13.6581801,9.61236 14.0770562,9.61236 C14.3499021,9.61236 15.5777088,9.56196 17.7598356,9.45996 C17.8142767,9.61236 17.8418175,9.78396 17.8418175,9.97056 C17.8418175,10.27716 17.80531,10.43136 17.7329353,10.43136 C17.3146997,10.43136 16.8324157,10.55856 16.2873644,10.81416 C15.9959444,10.95036 15.8505547,11.62356 15.8505547,12.83316 L15.8505547,14.31516 C15.8505547,14.62176 15.8780955,14.85216 15.9325366,15.00516 C15.9869776,15.15936 16.0138779,15.25296 16.0138779,15.28656 C16.0138779,15.57636 15.8230139,15.81456 15.4412858,16.00236 C14.7681378,16.32636 14.2455033,16.56036 13.872742,16.70496 C13.4999807,16.84956 12.8357994,17.01216 11.8814792,17.19036 C10.9265184,17.36976 9.85755166,17.45916 8.67521934,17.45916 C6.27468761,17.45916 4.22898369,16.61976 2.53746707,14.94156 C0.84530997,13.26276 -0.000128096677,11.28336 -0.000128096677,8.99976" id="Fill-1" fill="#19383D" mask="url(#mask-2)"></path>
                    </g>
                    <path d="M25.1457619,19.27962 C25.6177982,19.27962 25.9867166,19.17282 26.2505958,18.96042 C26.5144749,18.74682 26.645774,18.48822 26.645774,18.18102 L26.645774,15.59982 C26.608626,15.61722 26.4318526,15.67242 26.1135323,15.76602 C25.7952121,15.85962 25.5908979,15.92382 25.5005897,15.95742 C25.4083601,15.99222 25.2367106,16.05582 24.9824387,16.14882 C24.7275263,16.24242 24.5494719,16.32822 24.450197,16.40442 C24.3502816,16.48122 24.2273088,16.57902 24.081919,16.69842 C23.9358888,16.81782 23.8366139,16.94502 23.7815323,17.08182 C23.7270912,17.21802 23.6995505,17.37102 23.6995505,17.54202 C23.6995505,18.15522 23.8410973,18.59862 24.1222695,18.87102 C24.4047227,19.14282 24.7454598,19.27962 25.1457619,19.27962 M26.2371456,9.46662 C27.5097861,9.46662 28.4884447,9.79422 29.1692785,10.45002 C29.8513934,11.10582 30.192771,12.29442 30.192771,14.01522 L30.192771,18.15522 C30.192771,18.73482 30.4105353,19.02402 30.8479855,19.02402 C31.156058,19.02402 31.4654115,18.91362 31.7754054,18.69222 C31.9015807,18.76002 31.9649885,18.88842 31.9649885,19.07502 C31.9649885,19.50102 31.9015807,19.81662 31.7754054,20.02062 C31.5192121,20.24202 31.1067408,20.47662 30.5341486,20.72382 C29.9602755,20.96982 29.4197076,21.09402 28.9111637,21.09402 C28.4730731,21.09402 28.0548375,20.96982 27.6551758,20.72382 C27.2555142,20.47662 26.991635,20.19162 26.8648193,19.86702 C26.8456048,19.86702 26.7732302,19.91442 26.645774,20.00862 C26.5189583,20.10162 26.3549946,20.20842 26.1558042,20.32782 C25.9553329,20.44662 25.722197,20.56662 25.4595988,20.68602 C25.1957196,20.80482 24.8818828,20.90682 24.5187287,20.99202 C24.1542937,21.07722 23.7904991,21.11982 23.427345,21.11982 C22.42691,21.11982 21.6307891,20.86002 21.039623,20.34102 C20.4490973,19.82022 20.153194,19.16862 20.153194,18.38502 C20.153194,17.92542 20.2665595,17.50362 20.4939311,17.12022 C20.7219432,16.73742 20.9851819,16.42182 21.2855686,16.17462 C21.5853148,15.92802 21.9901003,15.69762 22.4992846,15.48462 C23.0084689,15.27162 23.4446381,15.11022 23.8084326,14.99862 C24.1722272,14.88882 24.641061,14.76042 25.2136532,14.61582 C25.7862453,14.47122 26.1814236,14.36442 26.3998284,14.29602 C26.5637921,14.24502 26.645774,14.11722 26.645774,13.91322 L26.645774,12.99282 C26.645774,11.59602 26.1903903,10.89702 25.2821849,10.89702 C24.2273088,10.89702 23.6995505,11.46762 23.6995505,12.61002 C23.6995505,12.98502 23.5362272,13.26102 23.2089402,13.44042 C22.8816532,13.61862 22.5172181,13.70802 22.116916,13.70802 C21.2810852,13.70802 20.7072121,13.45302 20.3991396,12.94182 C20.3991396,12.07242 21.0127227,11.27682 22.2398888,10.55202 C23.468336,9.82842 24.7999009,9.46662 26.2371456,9.46662" id="Fill-4" fill="#19383D"></path>
                    <path d="M41.9152822,11.07588 C41.2062671,11.07588 40.6554514,11.26368 40.2647565,11.63808 C39.8734211,12.01308 39.6780737,12.40488 39.6780737,12.81348 L39.6780737,17.64348 C39.6780737,18.32568 39.8875118,18.85008 40.3057474,19.21608 C40.7239831,19.58268 41.2511009,19.76508 41.8877414,19.76508 C42.7062792,19.76508 43.311536,19.42008 43.7022308,18.73008 C44.0922852,18.03948 44.2882731,17.13348 44.2882731,16.00908 C44.2882731,12.72048 43.4979166,11.07588 41.9152822,11.07588 M42.2156689,9.51708 C43.8521039,9.51708 45.2611674,10.06668 46.4441402,11.16468 C47.6251915,12.26448 48.2169982,13.59768 48.2169982,15.16428 C48.2169982,16.86888 47.5931674,18.29148 46.3480677,19.43328 C45.1023275,20.57448 43.5882248,21.14508 41.8064,21.14508 C40.9507142,21.14508 40.2692399,21.06888 39.7606961,20.91468 C39.2508713,20.76228 38.7596205,20.68608 38.2869438,20.68608 C38.1050465,20.68608 37.8232338,20.76648 37.4415057,20.92788 C37.0597776,21.08988 36.8407323,21.17088 36.7862912,21.17088 C36.7318502,21.17088 36.5723698,21.08988 36.3091311,20.92788 C36.045252,20.76648 35.9139529,20.64228 35.9139529,20.55768 C35.9139529,20.50668 35.9312459,20.35308 35.968394,20.09748 C36.004261,19.84128 36.0401281,19.49688 36.0772761,19.06248 C36.1131432,18.62808 36.1317172,18.16368 36.1317172,17.66928 L36.1317172,7.37028 C36.1317172,6.65448 36.0772761,6.04128 35.968394,5.53008 C35.8761644,5.25768 35.4041281,5.12148 34.5490828,5.12148 L34.3031372,5.12148 C34.194255,5.12148 34.1398139,4.95168 34.1398139,4.61088 C34.1398139,4.32048 34.194255,4.17528 34.3031372,4.17528 C34.867403,4.12428 35.4361523,4.05708 36.0087444,3.97128 C36.581977,3.88668 37.0687444,3.80088 37.4690465,3.71568 C37.8687082,3.63108 38.2280193,3.54588 38.5456991,3.46008 C38.8640193,3.37488 39.1144483,3.30708 39.2957051,3.25608 L39.5691915,3.17928 L39.6236326,3.17928 C39.6960073,3.17928 39.7683819,3.23028 39.8420375,3.33228 C39.9144121,3.43548 39.9598864,3.52848 39.9784604,3.61308 C39.7773486,4.38048 39.6780737,5.24028 39.6780737,6.19488 L39.6780737,9.92568 L39.6780737,10.05348 C39.6780737,10.08828 39.6825571,10.13508 39.6915239,10.19448 C39.7004906,10.25448 39.7184242,10.28388 39.745965,10.28388 C39.7728653,10.28388 39.8055299,10.27548 39.8420375,10.25868 C40.495971,9.76428 41.2876085,9.51708 42.2156689,9.51708" id="Fill-6" fill="#19383D"></path>
                    <path d="M59.3127964,9.51732 C60.1134006,9.51732 60.8954308,9.83232 61.658887,10.46292 C61.658887,11.34912 61.5455215,12.00492 61.3181498,12.43032 C61.0901378,12.85632 60.677026,13.06992 60.0768931,13.06992 C59.7130985,13.06992 59.2948628,12.87372 58.8221861,12.48132 C58.3482284,12.09012 57.9306332,11.89332 57.5661982,11.89332 C57.0211468,11.89332 56.6342949,12.17952 56.4075637,12.75012 C56.1795517,13.32072 56.0661861,13.92972 56.0661861,14.57772 L56.0661861,17.15832 C56.0661861,18.23172 56.1302344,18.99852 56.2570502,19.45812 C56.2935577,19.57872 56.5350199,19.71432 56.9801559,19.86732 C57.4259323,20.02092 57.7218356,20.09772 57.8665849,20.09772 C57.9216665,20.09772 57.9530502,20.23752 57.9626574,20.51892 C57.9709837,20.80032 57.9575335,20.97492 57.9216665,21.04272 C57.7032616,21.02592 57.1479625,20.98752 56.2570502,20.92812 C55.3661378,20.86872 54.7109233,20.83872 54.2933281,20.83872 C53.8565184,20.83872 53.1744036,20.86872 52.2476242,20.92812 C51.3195637,20.98752 50.7559384,21.02592 50.5554671,21.04272 C50.4830924,20.97492 50.4465849,20.80032 50.4465849,20.51892 C50.4465849,20.23752 50.4830924,20.09772 50.5554671,20.09772 C50.7559384,20.09772 51.0921921,20.02092 51.5648689,19.86732 C52.0381861,19.71432 52.292458,19.57872 52.3289656,19.45812 C52.4557813,18.94752 52.5198296,18.30012 52.5198296,17.51652 L52.5198296,14.01492 C52.5198296,13.06092 52.3565063,12.42252 52.0285789,12.09852 C51.9017631,11.96232 51.7102586,11.85132 51.4559867,11.76612 C51.2010743,11.68092 50.98331,11.62152 50.8014127,11.58732 C50.6195154,11.55372 50.5279263,11.52852 50.5279263,11.50992 C50.5279263,10.91412 50.5740411,10.61592 50.6649897,10.61592 C50.8833946,10.61592 51.2465486,10.56972 51.7563734,10.47612 C52.2649172,10.38132 52.928458,10.24992 53.7482767,10.07952 C54.566174,9.90912 55.202174,9.78132 55.6569172,9.69552 C55.8388145,9.64452 55.9387299,9.61932 55.9573039,9.61932 C56.0476121,9.61932 56.1392012,9.67452 56.2307903,9.78552 C56.3210985,9.89652 56.3659323,9.98532 56.3659323,10.05372 C56.3300653,10.25832 56.3025245,10.47972 56.2845909,10.71792 C56.2666574,10.95672 56.2480834,11.10972 56.2307903,11.17872 C57.1210622,10.07112 58.1490381,9.51732 59.3127964,9.51732" id="Fill-8" fill="#19383D"></path>
                    <path d="M66.1260665,6.53958 C65.7257644,6.17418 65.5259335,5.72658 65.5259335,5.19798 C65.5259335,4.67058 65.7257644,4.22358 66.1260665,3.85638 C66.5257281,3.49038 67.0028882,3.30678 67.5575468,3.30678 C68.1128459,3.30678 68.5855227,3.49038 68.976858,3.85638 C69.3681934,4.22358 69.5629003,4.67058 69.5629003,5.19798 C69.5629003,5.72658 69.3681934,6.17418 68.976858,6.53958 C68.5855227,6.90618 68.1128459,7.08918 67.5575468,7.08918 C67.0028882,7.08918 66.5257281,6.90618 66.1260665,6.53958 Z M69.5629003,17.13318 C69.5629003,18.22398 69.6269486,18.99858 69.7544048,19.45818 C69.7909124,19.57818 70.0496677,19.71438 70.5319517,19.86738 C71.0135952,20.02098 71.3267915,20.09778 71.4728218,20.09778 C71.5451964,20.09778 71.5823444,20.23758 71.5823444,20.51898 C71.5823444,20.80038 71.5637704,20.97498 71.5272628,21.04278 C71.3453656,21.02598 70.7823807,20.98758 69.8357462,20.92758 C68.8897523,20.86878 68.2082779,20.83878 67.7900423,20.83878 C67.3538731,20.83878 66.6756012,20.86878 65.7577885,20.92758 C64.8386949,20.98758 64.2712266,21.02598 64.0521813,21.04278 C63.9977402,20.97498 63.9708399,20.80038 63.9708399,20.51898 C63.9708399,20.23758 63.9977402,20.09778 64.0521813,20.09778 C64.2712266,20.09778 64.6119637,20.02098 65.0750332,19.86738 C65.5393837,19.71438 65.7891722,19.57818 65.8256798,19.45818 C65.9524955,18.94758 66.0165438,18.30018 66.0165438,17.51658 L66.0165438,14.01498 C66.0165438,13.06098 65.8525801,12.42258 65.5259335,12.09858 C65.3984773,11.96238 65.2114562,11.85138 64.9661511,11.76618 C64.7208459,11.68098 64.5030816,11.62158 64.311577,11.58738 C64.1200725,11.55318 64.025281,11.52798 64.025281,11.50998 C64.025281,10.91418 64.0701148,10.61598 64.1623444,10.61598 C64.5254985,10.61598 65.3209789,10.50138 66.5487855,10.27098 C67.7765921,10.04058 68.6450876,9.84978 69.1542719,9.69558 C69.171565,9.69558 69.2721208,9.67038 69.4540181,9.61938 C69.5629003,9.61938 69.6589728,9.67458 69.7409547,9.78558 C69.8222961,9.89658 69.863287,9.98538 69.863287,10.05318 C69.8453535,10.19058 69.8088459,10.44618 69.7544048,10.82118 C69.6999637,11.19558 69.6544894,11.52378 69.6179819,11.80398 C69.5808338,12.08538 69.5629003,12.35358 69.5629003,12.60978 L69.5629003,17.13318 Z" id="Fill-10" fill="#19383D"></path>
                    <path d="M79.4579843,10.92294 C78.7489692,10.92294 78.2301776,11.24214 77.9028906,11.88174 C77.5756036,12.51954 77.4122804,13.14594 77.4122804,13.75974 C77.4122804,13.86174 77.4756882,13.91274 77.6031444,13.91274 L81.067519,13.91274 C81.3224314,13.91274 81.4492471,13.75134 81.4492471,13.42734 C81.4492471,12.77994 81.2628665,12.20034 80.8901051,11.68914 C80.5173438,11.17854 80.0395432,10.92294 79.4579843,10.92294 M79.5944073,9.51714 C81.2321233,9.51714 82.5451142,10.04994 83.535942,11.11374 C84.5274103,12.17934 85.0231444,13.26534 85.0231444,14.37294 C85.0231444,14.76474 84.9373196,15.02034 84.7643891,15.13914 C84.5914586,15.25914 84.2494405,15.31854 83.7408967,15.31854 L77.5756036,15.31854 C77.4667215,15.31854 77.4122804,15.37854 77.4122804,15.49734 C77.4122804,16.41714 77.6883287,17.24394 78.2436278,17.97654 C78.7989269,18.70914 79.5944073,19.07514 80.6313498,19.07514 C81.2321233,19.07514 81.8040749,18.99474 82.3497668,18.83214 C82.8954586,18.67074 83.2778272,18.52614 83.4955915,18.39774 C83.7139964,18.26994 84.0041353,18.07854 84.3679299,17.82294 C84.5325341,17.89134 84.6138755,18.05274 84.6138755,18.30894 C84.6138755,18.51294 84.577368,18.68394 84.5049934,18.82014 C84.3230961,19.22814 83.7774042,19.71414 82.8679178,20.27634 C81.9577909,20.83854 80.9400628,21.11994 79.8128121,21.11994 C78.139229,21.11994 76.6975009,20.54874 75.4889088,19.40754 C74.2790356,18.26634 73.6744193,16.89414 73.6744193,15.29274 C73.6744193,13.65714 74.2201112,12.28614 75.3108544,11.17854 C76.4022381,10.07094 77.830516,9.51714 79.5944073,9.51714" id="Fill-12" fill="#19383D"></path>
                    <path d="M89.189681,7.3704 C89.189681,6.5694 89.1442066,5.9562 89.053258,5.5302 C88.9616689,5.2578 88.4889921,5.1216 87.6345873,5.1216 L87.3892822,5.1216 C87.2797595,5.1216 87.2253184,4.9518 87.2253184,4.6104 C87.2253184,4.3206 87.2797595,4.1754 87.3892822,4.1754 C87.9522671,4.1244 88.5216568,4.0572 89.0942489,3.9714 C89.6668411,3.8862 90.1536085,3.801 90.5539106,3.7158 C90.9535722,3.6312 91.3128834,3.546 91.6312036,3.4596 C91.9495239,3.375 92.1993124,3.3072 92.3812097,3.2562 L92.6540556,3.1794 L92.7084967,3.1794 C92.7808713,3.1794 92.8538864,3.2304 92.927542,3.3324 C92.9992761,3.435 93.0453909,3.5286 93.0633245,3.6132 C92.8634937,4.3806 92.7629378,5.2404 92.7629378,6.195 L92.7360375,17.133 C92.7360375,18.2238 92.7994453,18.9984 92.927542,19.458 C92.9640495,19.5786 93.217681,19.7142 93.6909982,19.8672 C94.1643154,20.0208 94.4826356,20.0976 94.6459589,20.0976 C94.7004,20.0976 94.7317837,20.2374 94.7407505,20.5188 C94.7503577,20.8002 94.7362671,20.9748 94.7004,21.0426 C94.4999287,21.0258 93.9311795,20.9874 92.9954332,20.928 C92.058406,20.8686 91.3814151,20.8386 90.9631795,20.8386 C90.5270103,20.8386 89.844255,20.8686 88.9161946,20.928 C87.9894151,20.9874 87.4257897,21.0258 87.2253184,21.0426 C87.1523033,20.9748 87.1164363,20.8002 87.1164363,20.5188 C87.1164363,20.2374 87.1523033,20.0976 87.2253184,20.0976 C87.4257897,20.0976 87.761403,20.0208 88.2353607,19.8672 C88.707397,19.7142 88.9616689,19.5786 88.9988169,19.458 C89.1256326,18.9474 89.189681,18.3 89.189681,17.5164 L89.189681,7.3704 Z" id="Fill-14" fill="#19383D"></path>
                    <path d="M147.307335,17.41458 L147.307335,13.14618 L147.252894,13.04418 C145.542804,13.00998 144.478961,12.99318 144.061366,12.99318 C141.805583,13.00998 140.677692,13.03578 140.677692,13.06998 L140.732133,13.12098 L140.732133,17.31138 C140.732133,18.21498 140.805148,18.93078 140.951178,19.45818 C140.987686,19.57818 141.236834,19.71438 141.701184,19.86738 C142.164894,20.02098 142.478731,20.09778 142.642695,20.09778 C142.714429,20.09778 142.75606,20.22558 142.765027,20.48058 C142.773994,20.73678 142.751577,20.92398 142.697136,21.04278 C142.605547,21.04278 142.045764,21.00858 141.01971,20.94078 C139.991094,20.87298 139.241088,20.83878 138.768411,20.83878 C138.295734,20.83878 137.608495,20.86878 136.708616,20.92758 C135.808097,20.98758 135.222054,21.02598 134.948568,21.04278 C134.876193,20.97498 134.839686,20.82978 134.839686,20.60838 C134.839686,20.26758 134.85826,20.09778 134.894127,20.09778 C135.113172,20.09778 135.458393,20.02938 135.931069,19.89318 C136.404387,19.75698 136.668266,19.62078 136.722707,19.48398 C136.849523,19.02438 136.912931,18.33378 136.912931,17.41458 L136.912931,7.65198 C136.912931,6.61218 136.849523,5.94798 136.722707,5.65758 C136.630477,5.47098 136.376846,5.30898 135.95861,5.17278 C135.540375,5.03658 135.222054,4.96818 135.003009,4.96818 C134.930634,4.96818 134.894127,4.79778 134.894127,4.45638 C134.894127,4.20198 134.91206,4.05678 134.948568,4.02258 C137.459263,4.12458 138.722937,4.17558 138.74087,4.17558 C139.213547,4.17558 140.541909,4.12458 142.724036,4.02258 C142.778477,4.10778 142.806018,4.28718 142.806018,4.55958 C142.806018,4.83138 142.76887,4.96818 142.697136,4.96818 C142.533172,4.96818 142.214852,5.04078 141.742816,5.18538 C141.268218,5.32998 141.005619,5.46258 140.951178,5.58078 C140.805148,5.93898 140.732133,6.66318 140.732133,7.75338 L140.732133,11.38278 L140.786574,11.45898 C142.56968,11.49438 143.661063,11.50998 144.061366,11.50998 C144.551976,11.50998 145.615819,11.49438 147.252894,11.45898 C147.289402,11.42538 147.307335,11.39118 147.307335,11.35698 L147.307335,7.65198 C147.307335,6.76638 147.243287,6.09258 147.115831,5.63298 C147.06139,5.49678 146.812242,5.35218 146.366465,5.19798 C145.920048,5.04498 145.597885,4.96818 145.398054,4.96818 C145.324399,4.96818 145.284048,4.82718 145.275082,4.54638 C145.265474,4.26558 145.297498,4.09038 145.370514,4.02258 C147.879927,4.12458 149.23519,4.17558 149.435021,4.17558 C149.707867,4.17558 150.935674,4.12458 153.117801,4.02258 C153.172882,4.17558 153.199782,4.32918 153.199782,4.48218 C153.199782,4.80618 153.154308,4.96818 153.06336,4.96818 C152.899396,4.96818 152.581076,5.04078 152.108399,5.18538 C151.635722,5.32998 151.38081,5.46258 151.344943,5.58078 C151.198912,6.09258 151.127178,6.81738 151.127178,7.75338 L151.127178,17.31138 C151.127178,18.23178 151.198912,18.95598 151.344943,19.48398 C151.38081,19.60338 151.631239,19.73118 152.094949,19.86738 C152.558659,20.00418 152.872495,20.07198 153.036459,20.07198 C153.109474,20.07198 153.145341,20.25078 153.145341,20.60838 C153.145341,20.74578 153.117801,20.88978 153.06336,21.04278 C152.899396,21.04278 152.363311,21.00858 151.454465,20.94078 C150.544338,20.87298 149.853257,20.83878 149.38058,20.83878 C148.88997,20.83878 148.14829,20.86878 147.158103,20.92758 C146.165994,20.98758 145.55177,21.02598 145.316073,21.04278 C145.243057,20.97498 145.211674,20.80038 145.22064,20.51898 C145.229607,20.23758 145.269958,20.09778 145.343613,20.09778 C145.542804,20.09778 145.879698,20.02098 146.353015,19.86738 C146.825051,19.71438 147.088931,19.56918 147.144012,19.43298 C147.252894,19.04118 147.307335,18.36858 147.307335,17.41458" id="Fill-16" fill="#19383D"></path>
                    <path d="M161.540541,10.92294 C161.012783,10.92294 160.575973,11.11854 160.230753,11.51034 C159.884892,11.90274 159.658161,12.34974 159.549279,12.85194 C159.439756,13.35534 159.385315,13.91274 159.385315,14.52654 C159.385315,17.98494 160.322342,19.71414 162.194475,19.71414 C162.958572,19.71414 163.518354,19.36494 163.873182,18.66594 C164.226729,17.96754 164.404783,17.15034 164.404783,16.21254 C164.404783,12.68574 163.449822,10.92294 161.540541,10.92294 M157.379961,11.20434 C158.625061,10.07994 160.139164,9.51714 161.92291,9.51714 C163.704735,9.51714 165.218197,10.07994 166.464578,11.20434 C167.709677,12.32874 168.332868,13.69974 168.332868,15.31854 C168.332868,16.93674 167.714801,18.30894 166.478028,19.43334 C165.240614,20.55774 163.722668,21.11994 161.92291,21.11994 C160.139164,21.11994 158.625061,20.55774 157.379961,19.43334 C156.134221,18.30894 155.511031,16.93674 155.511031,15.31854 C155.511031,13.69974 156.134221,12.32874 157.379961,11.20434" id="Fill-18" fill="#19383D"></path>
                    <path d="M172.690845,7.3704 C172.690845,6.5694 172.64473,5.9562 172.553781,5.5302 C172.462833,5.2578 171.990156,5.1216 171.135751,5.1216 L170.889805,5.1216 C170.780923,5.1216 170.725842,4.9518 170.725842,4.6104 C170.725842,4.3206 170.780923,4.1754 170.889805,4.1754 C171.45279,4.1244 172.02218,4.0572 172.594772,3.9714 C173.168005,3.8862 173.654132,3.801 174.054434,3.7158 C174.454095,3.6312 174.813407,3.546 175.132367,3.4596 C175.450047,3.375 175.699836,3.3072 175.882373,3.2562 L176.154579,3.1794 L176.20902,3.1794 C176.282035,3.1794 176.35505,3.2304 176.428065,3.3324 C176.499799,3.435 176.545914,3.5286 176.563848,3.6132 C176.364017,4.3806 176.264102,5.2404 176.264102,6.195 L176.237201,17.133 C176.237201,18.2238 176.300609,18.9984 176.428065,19.458 C176.464573,19.5786 176.718845,19.7142 177.191521,19.8672 C177.664839,20.0208 177.983159,20.0976 178.146482,20.0976 C178.201564,20.0976 178.232947,20.2374 178.241914,20.5188 C178.251521,20.8002 178.237431,20.9748 178.201564,21.0426 C178.000452,21.0258 177.432343,20.9874 176.495956,20.928 C175.55957,20.8686 174.881938,20.8386 174.463703,20.8386 C174.027534,20.8386 173.344778,20.8686 172.417358,20.928 C171.489938,20.9874 170.926313,21.0258 170.725842,21.0426 C170.652827,20.9748 170.61696,20.8002 170.61696,20.5188 C170.61696,20.2374 170.652827,20.0976 170.725842,20.0976 C170.926313,20.0976 171.262567,20.0208 171.735884,19.8672 C172.20792,19.7142 172.462833,19.5786 172.49934,19.458 C172.626156,18.9474 172.690845,18.3 172.690845,17.5164 L172.690845,7.3704 Z" id="Fill-20" fill="#19383D"></path>
                    <path d="M183.894949,9.82374 C184.29461,9.82374 184.940858,9.79434 185.83177,9.73494 C186.723323,9.67434 187.269015,9.63654 187.469486,9.61914 C187.523927,9.77274 187.550828,9.95154 187.550828,10.15614 C187.550828,10.42914 187.51432,10.56474 187.441946,10.56474 C187.204967,10.56474 186.86423,10.63314 186.418453,10.76874 C185.972677,10.90614 185.749789,11.05914 185.749789,11.22954 L185.777329,11.45934 C185.813196,11.73234 186.523492,13.39314 187.905656,16.44294 C189.141789,13.93794 189.815577,12.55854 189.924459,12.30294 C190.033341,12.06414 190.087782,11.80914 190.087782,11.53614 C190.087782,11.43414 190.037825,11.31474 189.937909,11.17854 C189.837994,11.04174 189.633039,10.90614 189.324326,10.76874 C189.014973,10.63314 188.624278,10.56474 188.150961,10.56474 C188.077946,10.56474 188.042079,10.41174 188.042079,10.10514 C188.042079,9.88374 188.060012,9.72174 188.09652,9.61914 C188.314284,9.63654 188.855492,9.67434 189.719505,9.73494 C190.583517,9.79434 191.233607,9.82374 191.670417,9.82374 C192.051505,9.82374 192.561329,9.79434 193.197329,9.73494 C193.83461,9.67434 194.29768,9.63654 194.5891,9.61914 C194.662115,9.75594 194.697982,9.90054 194.697982,10.05354 C194.697982,10.39434 194.662115,10.56474 194.5891,10.56474 C194.316254,10.56474 193.911468,10.65054 193.375384,10.82094 C192.838659,10.99074 192.478707,11.24694 192.29745,11.58714 L187.223541,21.88614 C185.713921,24.96954 183.95003,26.51154 181.931867,26.51154 C181.385535,26.51154 180.944242,26.37594 180.607988,26.10294 C180.271094,25.83114 180.103287,25.51554 180.103287,25.15794 C180.103287,24.62934 180.311444,24.22914 180.73032,23.95614 C183.039903,23.95614 184.540556,23.29194 185.232278,21.96294 C185.649873,21.12834 185.932326,20.56614 186.077716,20.27634 L182.013208,11.84214 L181.876145,11.53614 C181.694248,11.17854 181.416918,10.92714 181.044157,10.78194 C180.671396,10.63734 180.348592,10.56474 180.075746,10.56474 C180.002731,10.56474 179.966224,10.43634 179.966224,10.18194 C179.966224,9.84054 179.984798,9.65334 180.020665,9.61914 C180.166695,9.61914 180.739287,9.65334 181.740363,9.72174 C182.739517,9.78954 183.458139,9.82374 183.894949,9.82374" id="Fill-22" fill="#19383D"></path>
                    <g id="Group-26" transform="translate(195.987915, 9.112080)">
                        <mask id="mask-4" fill="white">
                            <use xlink:href="#path-3"></use>
                        </mask>
                        <g id="Clip-25"></g>
                        <path d="M10.1068918,0.43044 C11.1611275,0.43044 12.0200157,0.84804 12.684197,1.68324 C13.3483782,2.51784 13.6801486,3.78744 13.6801486,5.49084 L13.6801486,8.02104 C13.6801486,9.11184 13.744197,9.88644 13.8710127,10.34604 C13.9075202,10.46664 14.1617921,10.60224 14.6344689,10.75524 C15.1077861,10.90884 15.4261063,10.98564 15.5900701,10.98564 C15.6445112,10.98564 15.6758949,11.12544 15.6855021,11.40684 C15.6944689,11.68824 15.6803782,11.86284 15.6445112,11.93064 C15.4440399,11.91384 14.8759311,11.87544 13.9389039,11.81604 C13.0025172,11.75664 12.3248858,11.72664 11.9072906,11.72664 C11.470481,11.72664 10.8107831,11.75664 9.92883746,11.81604 C9.04689184,11.87544 8.49607613,11.91384 8.27895227,11.93064 C8.20593716,11.86284 8.17007009,11.68824 8.17007009,11.40684 C8.17007009,11.12544 8.20593716,10.98564 8.27895227,10.98564 C8.4781426,10.98564 8.79646284,10.90884 9.23327251,10.75524 C9.67008218,10.60224 9.90642054,10.46664 9.94228761,10.34604 C10.0691033,9.83544 10.1337921,9.18804 10.1337921,8.40444 L10.1337921,6.10464 C10.1337921,4.84284 9.946771,3.94464 9.57400967,3.40764 C9.20124834,2.87124 8.60559879,2.60304 7.78770151,2.60304 C7.22343565,2.60304 6.76869245,2.70084 6.4234719,2.89644 C6.07761088,3.09264 5.90468036,3.36924 5.90468036,3.72744 L5.90468036,8.02104 C5.90468036,9.11184 5.9687287,9.88644 6.09554441,10.34604 C6.13205196,10.46664 6.3735142,10.60224 6.81865015,10.75524 C7.26442659,10.90884 7.55968943,10.98564 7.70507915,10.98564 C7.76080121,10.98564 7.79218489,11.12544 7.80115166,11.40684 C7.81011843,11.68824 7.79666828,11.86284 7.76080121,11.93064 C7.54175589,11.91384 6.9864568,11.87544 6.09554441,11.81604 C5.20463202,11.75664 4.54941752,11.72664 4.13182236,11.72664 C3.69501269,11.72664 3.01289789,11.75664 2.08611843,11.81604 C1.15805801,11.87544 0.593792145,11.91384 0.394601813,11.93064 C0.32222719,11.86284 0.285719637,11.68824 0.285719637,11.40684 C0.285719637,11.12544 0.32222719,10.98564 0.394601813,10.98564 C0.593792145,10.98564 0.930686405,10.90884 1.40336314,10.75524 C1.87668036,10.60224 2.13095227,10.46664 2.16745982,10.34604 C2.29427553,9.83544 2.35832387,9.18804 2.35832387,8.40444 L2.35832387,4.90284 C2.35832387,3.94884 2.19436012,3.31044 1.86707311,2.98644 C1.7402574,2.85024 1.54939335,2.73924 1.29448097,2.65404 C1.03956858,2.56884 0.82180423,2.50944 0.639906949,2.47524 C0.458009668,2.44164 0.367061027,2.41644 0.367061027,2.39784 C0.367061027,1.80204 0.412535347,1.50384 0.503483988,1.50384 C0.722529305,1.50384 1.0850429,1.45764 1.59486767,1.36404 C2.10341148,1.26924 2.76759275,1.13784 3.58613051,0.96804 C4.40466828,0.79704 5.04130876,0.66924 5.49605196,0.58344 C5.53191903,0.58344 5.57290997,0.57564 5.61838429,0.55824 C5.66385861,0.54144 5.70484955,0.53244 5.7413571,0.53244 L5.79643867,0.50724 C5.88674683,0.50724 5.97769547,0.56244 6.06864411,0.67344 C6.16023323,0.78444 6.20506707,0.87324 6.20506707,0.94164 C6.13205196,1.41864 6.09554441,1.68324 6.09554441,1.73424 C6.09554441,1.81944 6.10515166,1.87044 6.1230852,1.88724 C6.16023323,1.88724 6.22364109,1.84464 6.31458973,1.76004 C7.33231782,0.87324 8.59727251,0.43044 10.1068918,0.43044" id="Fill-24" fill="#19383D" mask="url(#mask-4)"></path>
                    </g>
                    <path d="M113.449911,-6e-05 C114.697572,-6e-05 115.790237,0.31794 116.726624,0.95334 C117.66301,1.58874 118.131844,2.44014 118.131844,3.50874 C118.131844,4.24614 117.839784,4.95774 117.255663,5.64354 C116.672182,6.33054 116.150189,6.67374 115.6884,6.67374 C115.308593,6.67374 115.11837,6.55914 115.11837,6.33054 C115.11837,6.30534 115.172811,6.12054 115.281693,5.77734 C115.389294,5.43474 115.444376,5.04714 115.444376,4.61394 C115.444376,3.82674 115.166406,3.18414 114.610466,2.68854 C114.053246,2.19234 113.368569,1.94454 112.554515,1.94454 C111.359373,1.94454 110.369185,2.39634 109.582672,3.29874 C108.794877,4.20114 108.402261,5.24994 108.402261,6.44454 C108.402261,7.48734 108.794877,8.32674 109.582672,8.96214 C110.260944,8.78454 110.803433,8.69454 111.210781,8.69454 C111.942853,8.69454 112.60127,8.86074 113.185391,9.19014 C113.768871,9.52134 114.060291,9.95334 114.060291,10.48734 C114.060291,10.97034 113.788726,11.34474 113.246237,11.61234 C112.703107,11.87934 112.092726,12.01254 111.414454,12.01254 C110.382636,12.01254 109.541681,11.74554 108.89095,11.21214 C107.669548,12.17814 107.058527,13.91934 107.058527,16.43634 C107.058527,18.19014 107.573476,19.67154 108.605935,20.87874 C109.636473,22.08714 111.115349,22.69014 113.042563,22.69014 C115.186261,22.69014 116.971288,21.94674 118.396364,20.45994 C119.820158,18.97194 120.533657,17.21214 120.533657,15.17754 C120.533657,14.23734 120.343433,13.41774 119.962986,12.71754 C119.582539,12.01854 118.999699,11.66934 118.213185,11.66934 C117.534273,11.66934 116.943747,11.84094 116.442249,12.18474 C115.939469,12.52734 115.6884,12.97914 115.6884,13.53774 C115.6884,13.94514 116.068847,14.23734 116.82846,14.41494 C117.235808,14.51694 117.635469,14.70774 118.029367,14.98734 C118.422624,15.26694 118.619892,15.58494 118.619892,15.94014 C118.619892,17.18694 118.035772,17.94954 116.869451,18.22854 C116.24434,18.22854 115.552618,17.84094 114.793645,17.06514 C114.03275,16.28994 113.652944,15.41994 113.652944,14.45334 C113.652944,13.05534 114.249874,11.87934 115.444376,10.92594 C116.638877,9.97194 118.022962,9.49554 119.59727,9.49554 C120.003337,9.49554 120.518926,9.50874 121.144037,9.53394 C121.767228,9.55974 122.283457,9.57174 122.690805,9.57174 C123.586201,9.57174 124.366309,9.36834 125.031131,8.96214 C125.695953,8.55534 126.029004,7.99554 126.029004,7.28394 C126.029004,6.95394 125.899627,6.68034 125.642152,6.46374 C125.383397,6.24834 125.065077,6.13974 124.68527,6.13974 C124.413705,6.13974 124.087699,6.28014 123.708533,6.55914 C123.328086,6.83874 122.98927,6.97854 122.690805,6.97854 C122.202116,6.97854 121.794769,6.80094 121.469403,6.44454 C121.144037,6.08874 120.980714,5.66934 120.980714,5.18634 C120.980714,4.39854 121.279179,3.80094 121.87675,3.39414 C125.81124,3.39414 127.779445,4.69014 127.779445,7.28394 C127.779445,8.42814 127.392593,9.36234 126.61953,10.08714 C125.845826,10.81194 124.780062,11.17314 123.422877,11.17314 C123.260195,11.17314 122.907929,11.14854 122.365439,11.09754 C123.911566,12.39354 124.68527,13.91934 124.68527,15.67374 C124.68527,18.19014 123.444013,20.33274 120.960859,22.09914 C118.477705,23.86674 115.67495,24.74994 112.554515,24.74994 C109.785705,24.74994 107.364037,24.00654 105.288231,22.51854 C103.211784,21.03174 102.174201,19.10574 102.174201,16.74114 C102.174201,15.16494 102.74359,13.71594 103.88301,12.39354 C105.023071,11.07234 106.257923,10.16934 107.588207,9.68634 C107.533125,9.63594 107.383892,9.48954 107.139868,9.24774 C106.895844,9.00654 106.705621,8.80914 106.570479,8.65674 C106.434056,8.50434 106.271373,8.28234 106.08179,7.98894 C105.891566,7.69734 105.755784,7.38594 105.674442,7.05534 C105.593101,6.72474 105.55211,6.35634 105.55211,5.94894 C105.55211,4.06794 106.3873,2.60634 108.05576,1.56294 C109.7255,0.52134 111.522696,-6e-05 113.449911,-6e-05" id="Fill-27" fill="#F2AB99"></path>
                </g>
            </g>
        </g>
    </g>
</svg>